<svg width="64" height="53" viewBox="0 0 64 53" fill="none" xmlns="http://www.w3.org/2000/svg" xmlns:xlink="http://www.w3.org/1999/xlink">
<rect width="52" height="52" transform="translate(6 0.5)"/>
<rect x="6" y="0.5" width="52" height="52" rx="26" fill="white"/>
<path d="M22.5694 23.1196L39 18.5555V34.4444L29.6003 31.8334L29.6013 31.8298L22.3676 29.8177C20.9586 29.3339 20 28.0051 20 26.4999C20 24.924 21.0509 23.5414 22.5694 23.1196Z" fill="#3B46F1"/>
<path d="M23.0672 32.0883L23.6716 35.3787C23.8619 36.4145 24.7647 37.1666 25.8179 37.1666C27.023 37.1666 28 36.1896 28 34.9845V33.4603L23.0672 32.0883Z" fill="#3B46F1"/>
<path d="M44 31.6818C44 33.4211 42.618 34.7612 40.9936 34.8358C40.9978 34.7985 41 34.7605 41 34.7221V18.2776C41 18.2392 40.9978 18.2013 40.9936 18.1641C42.618 18.2388 44 19.5788 44 21.3181V31.6818Z" fill="#3B46F1"/>
</svg>
