<svg width="380" height="254" viewBox="0 0 380 254" fill="none" xmlns="http://www.w3.org/2000/svg">
<path d="M133.433 125.131L214.859 125.131V98.6474L133.433 98.6474V125.131Z" fill="#C7C7C7"/>
<path d="M214.859 98.6523V125.136H341.784V122.552H339.048V101.236H341.784V98.6523H214.859Z" fill="#A6A6A6"/>
<path d="M218.19 122.385L339.188 122.385V101.399L218.19 101.399V122.385Z" fill="white"/>
<path d="M218.188 122.385C248.35 122.299 309.039 122.192 339.19 122.157L338.962 122.385V101.399C320.606 102.123 267.36 101.308 248.467 101.546L218.213 101.475C218.3 101.024 218.213 122.481 218.213 122.385H218.188ZM218.188 122.385C218.188 122.314 218.117 101.394 218.117 101.328C218.117 101.262 248.421 101.262 248.441 101.252L339.19 101.146H339.444V101.399L339.418 122.385V122.613H339.19C309.033 122.583 248.34 122.476 218.188 122.385Z" fill="#DBDBDB"/>
<path d="M295.766 117.744C305.017 117.865 314.269 117.95 323.521 117.997L339.192 118.038V117.455L323.521 117.496C314.269 117.529 305.017 117.612 295.766 117.744Z" fill="#DBDBDB"/>
<path d="M218.188 112.783V113.32L238.388 113.376L267.669 113.3C276.92 113.256 286.172 113.173 295.424 113.052C286.172 112.93 276.92 112.847 267.669 112.804L238.388 112.728L218.188 112.783Z" fill="#DBDBDB"/>
<path d="M218.188 104.915V105.564L247.067 105.488C256.326 105.444 265.578 105.361 274.823 105.239C265.571 105.118 256.319 105.035 247.067 104.991L218.188 104.915Z" fill="#DBDBDB"/>
<path d="M218.188 117.8V118.337H225.945C235.196 118.296 244.45 118.214 253.705 118.089C244.446 117.974 235.193 117.891 225.945 117.84L218.188 117.8Z" fill="#DBDBDB"/>
<path d="M294.836 108.756C304.091 108.871 313.344 108.953 322.596 109.004L339.19 109.05V108.462L322.596 108.508C313.338 108.548 304.084 108.631 294.836 108.756Z" fill="#DBDBDB"/>
<path d="M331.138 110.909C324.771 110.875 318.399 110.85 312.022 110.833H291.862H272.218C265.844 110.833 259.472 110.858 253.102 110.909C259.475 110.943 265.848 110.968 272.218 110.985H291.862H312.022C318.396 110.968 324.768 110.943 331.138 110.909Z" fill="#DBDBDB"/>
<path d="M323.161 78.9688H241.734V98.6528H323.161V78.9688Z" fill="#EBEBEB"/>
<path d="M241.73 98.6528V78.9688H114.805V80.889H117.541V96.7325H114.805V98.6528H241.73Z" fill="#DBDBDB"/>
<path d="M238.403 81.0107H117.406V96.611H238.403V81.0107Z" fill="white"/>
<path d="M238.407 81.0104C208.245 81.1016 147.556 81.208 117.41 81.2435L117.643 81.0104V96.6107C116.042 95.9115 178.25 96.6563 177.89 96.4333C192.959 96.4333 223.328 96.5043 238.391 96.555C238.305 96.8894 238.391 80.9445 238.391 81.0104H238.407ZM238.407 81.0104L238.462 96.6107V96.6664H238.407C223.313 96.7171 192.994 96.7829 177.906 96.788L117.41 96.864H117.156V96.6107V81.0104V80.7773H117.389C147.546 80.8128 208.24 80.9192 238.386 81.0104H238.407Z" fill="#DBDBDB"/>
<path d="M160.83 84.461C151.578 84.3698 142.325 84.3073 133.07 84.2736L117.398 84.2432V84.6738L133.07 84.6485C142.311 84.6249 151.565 84.5624 160.83 84.461Z" fill="#DBDBDB"/>
<path d="M238.4 88.1595V87.7593L218.205 87.7188L188.924 87.7745C179.673 87.8083 170.419 87.8691 161.164 87.9569C170.416 88.0481 179.669 88.1106 188.924 88.1443L218.205 88.2001L238.4 88.1595Z" fill="#DBDBDB"/>
<path d="M238.406 93.9969V93.4902L209.526 93.546C200.271 93.5797 191.017 93.6422 181.766 93.7334C191.017 93.8179 200.271 93.8787 209.526 93.9158L238.406 93.9969Z" fill="#DBDBDB"/>
<path d="M238.403 84.4208V84.0205H230.646C221.394 84.0509 212.142 84.1134 202.891 84.208C212.142 84.2958 221.394 84.3566 230.646 84.3904L238.403 84.4208Z" fill="#DBDBDB"/>
<path d="M161.757 91.1436C152.502 91.0592 143.247 90.9967 133.992 90.9562L117.398 90.9258V91.3615L133.992 91.326C143.25 91.2956 152.505 91.2348 161.757 91.1436Z" fill="#DBDBDB"/>
<path d="M125.453 89.543C131.827 89.5701 138.199 89.5886 144.57 89.5988H164.735H184.373C190.747 89.5988 197.119 89.5802 203.49 89.543C197.119 89.5126 190.747 89.4941 184.373 89.4873H164.735H144.57C138.196 89.4974 131.824 89.516 125.453 89.543Z" fill="#DBDBDB"/>
<path d="M165.627 39.3525H52.6406V125.136H165.627V39.3525Z" fill="#EBEBEB"/>
<path d="M208.573 39.3525H165.633V125.136H208.573V39.3525Z" fill="#DBDBDB"/>
<path d="M52.6406 81.9121H165.627L77.3913 84.1364L52.6406 81.9121Z" fill="#DBDBDB"/>
<path d="M165.627 114.694H52.6406L140.882 116.919L165.627 114.694Z" fill="#DBDBDB"/>
<path d="M52.6406 57.75H124.212L60.5902 59.5639L52.6406 57.75Z" fill="#DBDBDB"/>
<path d="M165.629 101.967H94.0625L157.68 103.781L165.629 101.967Z" fill="#DBDBDB"/>
<path d="M175.114 44.6875H103.547L167.169 46.5064L175.114 44.6875Z" fill="#DBDBDB"/>
<path d="M101.641 50.124H182.363L168.906 51.2134L101.641 50.124Z" fill="#DBDBDB"/>
<path d="M63.625 91.1797H144.347L130.89 92.269L63.625 91.1797Z" fill="#DBDBDB"/>
<path d="M113.266 65.9775H165.63L174.988 68.8858L113.266 65.9775Z" fill="#EBEBEB"/>
<path d="M125.891 94.9639H178.255L187.608 97.8721L125.891 94.9639Z" fill="#EBEBEB"/>
<path d="M114.367 107.737H166.731L176.089 110.646L114.367 107.737Z" fill="#EBEBEB"/>
<path d="M38.2188 65.9775H90.5827L99.9358 68.8858L38.2188 65.9775Z" fill="#DBDBDB"/>
<path d="M105.405 49.2178H53.0456L43.6875 52.121L105.405 49.2178Z" fill="#EBEBEB"/>
<path d="M108.238 100.513H55.8738L46.5156 103.421L108.238 100.513Z" fill="#EBEBEB"/>
<path d="M105.405 104.834H53.0456L43.6875 107.737L105.405 104.834Z" fill="#DBDBDB"/>
<path d="M165.633 94.9639H207.681L217.039 97.8721L165.633 94.9639Z" fill="#DBDBDB"/>
<path d="M180.305 81.9124H212.914L208.567 79.5361L180.305 81.9124Z" fill="#DBDBDB"/>
<path d="M28.1016 125.147C131.826 124.838 248.177 124.833 351.902 125.147C248.177 125.461 131.826 125.456 28.1016 125.147Z" fill="#263238"/>
<path d="M236.844 196.876L287.161 184.508L351.092 193.415L298.601 206.7L236.844 196.876Z" fill="#DBDBDB"/>
<path d="M236.844 196.876L287.146 184.452C287.146 184.452 351.122 193.299 351.122 193.293L351.766 193.38L351.122 193.547L298.601 206.771C298.601 206.771 236.864 196.871 236.844 196.876ZM236.844 196.876C236.844 196.876 298.698 206.639 298.586 206.634L351.062 193.293V193.542C351.062 193.542 287.08 184.559 287.176 184.564L236.844 196.876Z" fill="#DBDBDB"/>
<path d="M296.602 203.255C299.697 202.302 302.889 201.415 306.091 200.539C309.294 199.662 312.546 198.821 315.809 198.005C319.072 197.19 322.396 196.364 325.73 195.589L330.756 194.428C332.468 194.064 334.146 193.679 335.878 193.334C334.358 193.815 332.747 194.256 331.182 194.722L326.394 196.045C323.202 196.931 319.939 197.767 316.676 198.578C313.413 199.389 310.089 200.22 306.755 200.995C303.421 201.77 300.057 202.545 296.602 203.255Z" fill="#C7C7C7"/>
<path d="M304.914 198.223C308.461 197.007 312.291 195.964 316.172 194.971C320.053 193.977 324.056 193.04 328.322 192.311C324.775 193.532 320.95 194.57 317.064 195.563C313.178 196.556 309.155 197.473 304.914 198.223Z" fill="#C7C7C7"/>
<path d="M281.445 201.243C284.541 200.29 287.733 199.404 290.935 198.527C294.137 197.651 297.39 196.809 300.653 195.994C303.916 195.178 307.24 194.352 310.569 193.577L315.6 192.422C317.307 192.057 318.989 191.672 320.722 191.322C319.202 191.804 317.591 192.249 316.025 192.711L311.237 194.038C308.04 194.92 304.782 195.756 301.519 196.571C298.257 197.387 294.933 198.213 291.599 198.988C288.265 199.763 284.901 200.533 281.445 201.243Z" fill="#C7C7C7"/>
<path d="M279.508 198.806C284.772 197.154 290.3 195.685 295.893 194.246C301.487 192.807 307.192 191.47 313.12 190.289C307.856 191.941 302.328 193.41 296.74 194.849C291.151 196.288 285.456 197.626 279.508 198.806Z" fill="#C7C7C7"/>
<path d="M286.086 194.221C288.989 193.167 292.166 192.29 295.393 191.46C298.621 190.629 301.98 189.879 305.562 189.291C302.659 190.35 299.482 191.221 296.26 192.052C293.037 192.883 289.673 193.633 286.086 194.221Z" fill="#C7C7C7"/>
<path d="M28.9141 144.937L98.7327 131.723L166.104 151.407L96.6351 165.097L28.9141 144.937Z" fill="#EBEBEB"/>
<path d="M28.9141 144.937L98.7378 131.657C98.7378 131.657 166.124 151.291 166.124 151.285L166.631 151.432L166.124 151.534L96.6351 165.173C96.6098 165.173 28.9343 144.952 28.9141 144.952V144.937ZM28.9141 144.937L96.6554 165.031C96.4882 165.067 166.124 151.27 166.069 151.285V151.529L98.7175 131.769C98.8493 131.738 28.8938 144.942 28.9141 144.942V144.937Z" fill="#DBDBDB"/>
<path d="M95.6562 161.084C100.216 160.031 104.812 159.058 109.427 158.08C114.043 157.102 118.694 156.17 123.351 155.248C128.007 154.326 132.689 153.424 137.401 152.567L144.469 151.28C146.845 150.875 149.201 150.45 151.597 150.064C149.327 150.596 147.037 151.078 144.737 151.584L137.816 153.069C133.205 154.052 128.549 154.979 123.898 155.901C119.247 156.823 114.56 157.725 109.848 158.582C105.136 159.438 100.429 160.304 95.6562 161.084Z" fill="#DBDBDB"/>
<path d="M113.555 154.077C118.53 152.795 123.688 151.711 128.861 150.678C134.034 149.644 139.303 148.702 144.715 147.937C139.739 149.218 134.581 150.303 129.408 151.336C124.235 152.37 118.966 153.312 113.555 154.077Z" fill="#DBDBDB"/>
<path d="M88.7734 155.476C92.7508 154.533 96.7838 153.667 100.827 152.806C104.87 151.944 108.934 151.129 113.028 150.313C117.121 149.497 121.22 148.717 125.36 147.972L131.567 146.857C133.659 146.508 135.726 146.138 137.834 145.809C135.853 146.285 133.836 146.721 131.835 147.177L125.78 148.479C121.727 149.345 117.674 150.156 113.58 150.972C109.486 151.787 105.392 152.562 101.253 153.312C97.1132 154.062 92.9788 154.807 88.7734 155.476Z" fill="#DBDBDB"/>
<path d="M85.5234 152.633C89.1968 151.751 92.9258 150.941 96.6701 150.14C100.414 149.34 104.184 148.58 107.964 147.83C111.743 147.08 115.564 146.35 119.384 145.666L125.135 144.653C127.075 144.334 128.995 143.994 130.951 143.695C129.122 144.146 127.253 144.547 125.408 144.977L119.805 146.188C116.07 146.994 112.291 147.749 108.511 148.499C104.731 149.248 100.911 149.973 97.0906 150.662C93.2704 151.351 89.4248 152 85.5234 152.633Z" fill="#DBDBDB"/>
<path d="M68.1328 152.578C72.6928 151.524 77.2883 150.551 81.904 149.568C86.5197 148.585 91.1709 147.663 95.8272 146.736C100.483 145.809 105.165 144.917 109.872 144.056L116.965 142.769C119.342 142.368 121.698 141.938 124.094 141.553C121.824 142.09 119.534 142.566 117.234 143.073L110.318 144.542C105.707 145.52 101.051 146.447 96.3997 147.374C91.7485 148.302 87.0619 149.193 82.3499 150.055C77.6379 150.916 72.9056 151.792 68.1328 152.578Z" fill="#DBDBDB"/>
<path d="M67.5547 149.208C71.5776 148.255 75.6614 147.379 79.7501 146.507C83.8389 145.636 87.9683 144.81 92.0976 143.974C96.2269 143.138 100.382 142.358 104.567 141.603L110.849 140.473C112.962 140.118 115.06 139.743 117.188 139.414C115.161 139.895 113.134 140.331 111.108 140.797L104.982 142.11C100.898 142.986 96.7691 143.807 92.6398 144.643C88.5104 145.479 84.3507 146.259 80.1656 147.014C75.9806 147.769 71.8056 148.529 67.5547 149.208Z" fill="#DBDBDB"/>
<path d="M54.3672 148.322C58.9272 147.268 63.5227 146.295 68.1435 145.317C72.7643 144.339 77.4104 143.387 82.0869 142.485C86.7635 141.583 91.4248 140.661 96.1368 139.805L103.205 138.518C105.581 138.112 107.942 137.687 110.334 137.302C108.064 137.834 105.774 138.315 103.478 138.822L96.5624 140.296C91.9517 141.274 87.2955 142.201 82.6392 143.123C77.9829 144.046 73.3013 144.947 68.5893 145.804C63.8773 146.66 59.1451 147.541 54.3672 148.322Z" fill="#DBDBDB"/>
<path d="M70.3594 141.69C75.654 140.342 81.1159 139.197 86.6183 138.102C92.1207 137.008 97.694 136 103.424 135.174C98.1298 136.522 92.673 137.662 87.1655 138.761C81.658 139.86 76.0898 140.854 70.3594 141.69Z" fill="#DBDBDB"/>
<path d="M131.219 212.394L219.946 195.604L305.553 220.618L217.276 238.012L131.219 212.394Z" fill="#EBEBEB"/>
<path d="M131.229 212.395L219.946 195.538C219.946 195.538 305.573 220.502 305.573 220.496L306.08 220.643L305.573 220.745L217.276 238.078C217.251 238.083 131.229 212.395 131.229 212.395ZM131.229 212.395L217.306 237.951C217.149 237.951 305.578 220.486 305.537 220.496V220.74L219.926 195.665C220.058 195.624 131.198 212.42 131.219 212.385L131.229 212.395Z" fill="#DBDBDB"/>
<path d="M216.031 232.914C221.812 231.577 227.685 230.325 233.537 229.094C239.389 227.863 245.312 226.672 251.224 225.497C257.137 224.321 263.09 223.181 269.079 222.087L278.062 220.455C281.102 219.949 284.077 219.397 287.122 218.91C284.239 219.589 281.31 220.212 278.407 220.866L269.616 222.73C263.759 223.977 257.841 225.152 251.929 226.328C246.016 227.503 240.062 228.643 234.074 229.733C228.085 230.822 222.101 231.921 216.031 232.914Z" fill="#DBDBDB"/>
<path d="M238.773 224.008C245.097 222.381 251.633 221.003 258.219 219.691C264.806 218.379 271.494 217.158 278.374 216.205C272.051 217.837 265.51 219.215 258.924 220.527C252.337 221.839 245.649 223.035 238.773 224.008Z" fill="#DBDBDB"/>
<path d="M207.289 225.786C212.356 224.59 217.468 223.485 222.606 222.396C227.743 221.307 232.926 220.263 238.11 219.229C243.293 218.196 248.517 217.203 253.776 216.25L261.67 214.831C264.325 214.391 266.954 213.919 269.634 213.504C267.101 214.112 264.568 214.664 262.034 215.242L254.343 216.893C249.211 217.993 244.022 219.027 238.839 220.06C233.656 221.094 228.427 222.087 223.168 223.034C217.909 223.982 212.629 224.96 207.289 225.786Z" fill="#DBDBDB"/>
<path d="M203.18 222.173C207.846 221.054 212.588 220.025 217.366 219.012C222.144 217.999 226.912 217.026 231.715 216.068C236.518 215.111 241.342 214.194 246.226 213.322L253.542 212.015C256.005 211.615 258.442 211.179 260.93 210.799C258.604 211.371 256.233 211.883 253.882 212.425L246.763 213.945C242.021 214.959 237.218 215.926 232.414 216.884C227.611 217.841 222.788 218.759 217.903 219.63C213.019 220.502 208.115 221.413 203.18 222.173Z" fill="#DBDBDB"/>
<path d="M181.055 222.103C186.836 220.765 192.708 219.514 198.56 218.283C204.412 217.051 210.335 215.861 216.248 214.685C222.161 213.51 228.114 212.37 234.088 211.28L243.071 209.649C246.111 209.142 249.085 208.59 252.13 208.129C249.247 208.808 246.318 209.431 243.415 210.085L234.625 211.949C228.767 213.196 222.85 214.371 216.937 215.547C211.024 216.722 205.071 217.862 199.082 218.951C193.093 220.041 187.125 221.11 181.055 222.103Z" fill="#DBDBDB"/>
<path d="M180.32 217.821C185.433 216.615 190.621 215.495 195.819 214.396C201.018 213.296 206.257 212.237 211.526 211.189C216.795 210.14 222.054 209.137 227.374 208.179L235.334 206.72C238.025 206.274 240.685 205.798 243.395 205.372C240.862 205.985 238.253 206.542 235.679 207.13L227.896 208.802C222.703 209.912 217.454 210.961 212.19 212.004C206.925 213.048 201.661 214.031 196.341 215.014C191.021 215.997 185.721 216.96 180.32 217.821Z" fill="#DBDBDB"/>
<path d="M163.562 216.696C169.344 215.358 175.216 214.107 181.068 212.875C186.92 211.644 192.843 210.454 198.756 209.278C204.668 208.103 210.622 206.963 216.611 205.868L225.594 204.237C228.634 203.73 231.608 203.178 234.648 202.691C231.77 203.37 228.841 203.994 225.938 204.647L217.148 206.512C211.291 207.758 205.373 208.934 199.46 210.109C193.547 211.284 187.594 212.424 181.605 213.514C175.616 214.603 169.632 215.703 163.562 216.696Z" fill="#DBDBDB"/>
<path d="M183.891 208.265C190.619 206.558 197.571 205.104 204.547 203.705C211.524 202.307 218.628 201.03 225.908 199.981C219.18 201.694 212.228 203.148 205.247 204.541C198.265 205.935 191.171 207.227 183.891 208.265Z" fill="#DBDBDB"/>
<path d="M348.029 169.839L183.758 215.227V182.511L348.029 137.124C356.734 153.175 348.029 169.839 348.029 169.839Z" fill="#37474F"/>
<path d="M23.4609 192.533L183.76 215.227V206.933L38.1188 189.118L23.4609 190V192.533Z" fill="#455A64"/>
<path d="M183.768 182.663C189.757 197.078 183.768 215.227 183.768 215.227L31.1953 191.13V162.853L183.768 182.663Z" fill="#455A64"/>
<path d="M179.993 182.177C185.825 196.536 180.475 212 180.475 212L31.1953 191.013V162.843L179.993 182.177Z" fill="white"/>
<path d="M179.989 182.177C180.186 182.734 180.759 184.305 180.956 184.857C182.142 188.801 182.743 192.898 182.74 197.017C182.762 202.098 182.023 207.153 180.546 212.014C180.617 212.237 31.206 191.185 31.1554 191.241L30.9375 191.211V191.013V162.842V162.584L31.1908 162.619L105.62 172.363L179.958 182.167L179.989 182.177ZM179.989 182.177C143.387 177.257 66.7943 168.178 31.4138 162.853L31.4391 191.023L31.2212 190.77C31.2212 190.826 180.809 211.842 180.384 211.974C181.141 209.561 181.706 207.093 182.076 204.592C183.206 197.108 182.77 189.255 179.984 182.177H179.989Z" fill="#DBDBDB"/>
<path d="M103.422 175.054C128.33 178.094 156.227 181.843 181.048 185.527C156.141 182.487 128.243 178.732 103.422 175.054Z" fill="#DBDBDB"/>
<path d="M31.1953 173.158C52.5462 175.692 76.2329 178.904 97.5078 182.101C76.1417 179.568 52.4652 176.365 31.1953 173.158Z" fill="#DBDBDB"/>
<path d="M34.75 175.94C71.0324 180.5 111.682 185.983 147.868 191.196C111.591 186.636 70.9412 181.154 34.75 175.94Z" fill="#DBDBDB"/>
<path d="M54.3594 185.511C91.9946 190.167 134.164 195.761 171.708 201.07C134.078 196.419 91.9084 190.821 54.3594 185.511Z" fill="#DBDBDB"/>
<path d="M79.6641 191.47C112.486 195.574 149.295 200.529 182.041 205.281C149.204 201.188 112.415 196.222 79.6641 191.47Z" fill="#DBDBDB"/>
<path d="M50.1641 191.414C92.2174 196.775 139.337 203.128 181.284 209.102C139.231 203.746 92.111 197.388 50.1641 191.414Z" fill="#DBDBDB"/>
<path d="M183.765 182.664L348.032 137.124L182.037 129.605L23.4609 159.012V161.85L183.765 182.664Z" fill="#455A64"/>
<path d="M187.977 177.658C208.355 171.482 229.285 165.903 250.195 161.085C229.822 167.266 208.892 172.835 187.977 177.658Z" fill="#37474F"/>
<path d="M148.57 174.76C154.245 175.054 160.107 175.712 165.741 176.396C171.375 177.08 177.192 177.916 182.715 179.056C177.04 178.767 171.178 178.104 165.549 177.42C159.92 176.736 154.098 175.874 148.57 174.76Z" fill="#37474F"/>
<path d="M27.8672 159.564C66.4499 163.709 105.342 168.598 143.666 174.136C105.053 170.002 66.1661 165.102 27.8672 159.564Z" fill="#37474F"/>
<path d="M295.391 155.578C311.422 150.541 327.647 145.953 344.066 141.812C328.042 146.848 311.817 151.436 295.391 155.578Z" fill="#455A64"/>
<path d="M210.211 130.624C208.083 131.039 199.297 131.51 199.12 129.61C198.846 126.753 219.858 106.486 227.397 102.676C234.566 99.0483 257.665 91.1342 263.37 90.9619L263.421 109.161C260.193 109.982 234.48 107.474 229.079 110.342C226.733 111.588 223.627 116.756 217.304 124.964C215.08 127.857 211.467 130.376 210.211 130.624Z" fill="#F5A71D"/>
<g opacity="0.3">
<path d="M210.211 130.624C208.083 131.039 199.297 131.51 199.12 129.61C198.846 126.753 219.858 106.486 227.397 102.676C234.566 99.0483 257.665 91.1342 263.37 90.9619L263.421 109.161C260.193 109.982 234.48 107.474 229.079 110.342C226.733 111.588 223.627 116.756 217.304 124.964C215.08 127.857 211.467 130.376 210.211 130.624Z" fill="black"/>
</g>
<path d="M205.853 130.624C203.72 131.039 195.552 131.51 195.37 129.61C195.101 126.753 216.113 106.486 223.647 102.676C230.816 99.0483 257.669 91.1342 263.375 90.9619L263.425 109.161C260.198 109.982 230.735 107.474 225.334 110.342C222.988 111.588 219.254 116.756 212.941 124.964C210.722 127.857 207.109 130.376 205.853 130.624Z" fill="#F5A71D"/>
<g opacity="0.2">
<path d="M205.853 130.624C203.72 131.039 195.552 131.51 195.37 129.61C195.101 126.753 216.113 106.486 223.647 102.676C230.816 99.0483 257.669 91.1342 263.375 90.9619L263.425 109.161C260.198 109.982 230.735 107.474 225.334 110.342C222.988 111.588 219.254 116.756 212.941 124.964C210.722 127.857 207.109 130.376 205.853 130.624Z" fill="black"/>
</g>
<path d="M288.697 154.771C290.531 155.541 297.746 155.932 298.982 154.376C300.847 152.02 278.097 119.963 264.732 114.147C252.232 108.751 75.8868 74.5001 72.2489 73.9326L72.1172 88.1598C96.6855 92.0004 252.577 116.837 262.219 121.037C268.506 123.768 276.517 138.178 282.272 148.134C284.598 152.177 286.569 153.88 288.697 154.771Z" fill="#F5A71D"/>
<g opacity="0.2">
<path d="M288.697 154.771C290.531 155.541 297.746 155.932 298.982 154.376C300.847 152.02 278.097 119.963 264.732 114.147C252.232 108.751 75.8868 74.5001 72.2489 73.9326L72.1172 88.1598C96.6855 92.0004 252.577 116.837 262.219 121.037C268.506 123.768 276.517 138.178 282.272 148.134C284.598 152.177 286.569 153.88 288.697 154.771Z" fill="black"/>
</g>
<path d="M285.65 154.771C287.484 155.541 294.699 155.932 295.935 154.376C297.8 152.02 275.218 119.188 261.857 113.372C249.352 107.976 75.885 74.4798 72.2471 73.9326L69.0703 88.1598C93.6386 92.0004 249.53 116.837 259.172 121.037C265.459 123.768 273.47 138.178 279.225 148.134C281.551 152.177 283.522 153.88 285.65 154.771Z" fill="#F5A71D"/>
<g opacity="0.1">
<path d="M106.399 80.499L93.0536 91.975C81.9525 90.2017 73.4355 88.859 69.0781 88.175L72.2499 73.9326C73.2379 74.0846 86.852 76.694 106.399 80.499Z" fill="black"/>
<path d="M140.529 99.6563L132.24 98.2934L124.539 84.0459L136.745 86.4576L140.529 99.6563Z" fill="black"/>
<path d="M187.213 96.6012L177.84 105.838L169.516 104.439L176.173 94.3516C179.872 95.0981 183.552 95.8479 187.213 96.6012Z" fill="black"/>
<path d="M260.709 112.951L257.482 120.495C255.931 120.059 253.596 119.512 250.591 118.879L248.266 109.683C254.113 111.061 258.429 112.18 260.709 112.951Z" fill="black"/>
</g>
<path d="M105.761 162.225C87.389 161.338 73.41 140.529 74.5956 115.844C75.158 104.064 79.0543 93.1101 85.5599 84.9984C92.2834 76.6181 100.963 72.2203 110.083 72.6813C119.203 73.1424 127.421 78.3104 133.303 87.3037C139.003 95.988 141.83 107.271 141.258 119.062C140.133 142.419 125.815 161.014 108.704 162.194C107.725 162.26 106.742 162.27 105.761 162.225ZM90.2364 88.7579C84.5162 95.8765 81.0658 105.605 80.5591 116.138C79.5458 137.519 90.961 155.511 106.039 156.236C121.118 156.96 134.225 140.154 135.264 118.742C135.771 108.209 133.283 98.2021 128.282 90.5565C123.464 83.2149 116.892 78.9843 109.779 78.6448C109.021 78.5992 108.261 78.5992 107.504 78.6448C101.201 79.1261 95.141 82.6373 90.2364 88.7477V88.7579ZM74.621 118.981C73.6938 100.923 75.7154 98.0957 74.8946 92.7707C74.5044 90.2373 70.9375 87.8053 70.9375 87.8053L74.0535 74.8397C74.0535 74.8397 83.7663 75.7872 86.0058 75.8227C89.9882 75.8784 98.5863 72.9701 106.075 72.7827C106.075 72.7827 89.7956 80.0989 84.5618 89.4267C79.3279 98.7544 74.621 118.97 74.621 118.97V118.981Z" fill="#004682"/>
<path opacity="0.1" d="M105.761 162.225C87.389 161.338 73.41 140.529 74.5956 115.844C75.158 104.064 79.0543 93.1101 85.5599 84.9984C92.2834 76.6181 100.963 72.2203 110.083 72.6813C119.203 73.1424 127.421 78.3104 133.303 87.3037C139.003 95.988 141.83 107.271 141.258 119.062C140.133 142.419 125.815 161.014 108.704 162.194C107.725 162.26 106.742 162.27 105.761 162.225ZM90.2364 88.7579C84.5162 95.8765 81.0658 105.605 80.5591 116.138C79.5458 137.519 90.961 155.511 106.039 156.236C121.118 156.96 134.225 140.154 135.264 118.742C135.771 108.209 133.283 98.2021 128.282 90.5565C123.464 83.2149 116.892 78.9843 109.779 78.6448C109.021 78.5992 108.261 78.5992 107.504 78.6448C101.201 79.1261 95.141 82.6373 90.2364 88.7477V88.7579ZM74.621 118.981C73.6938 100.923 75.7154 98.0957 74.8946 92.7707C74.5044 90.2373 70.9375 87.8053 70.9375 87.8053L74.0535 74.8397C74.0535 74.8397 83.7663 75.7872 86.0058 75.8227C89.9882 75.8784 98.5863 72.9701 106.075 72.7827C106.075 72.7827 89.7956 80.0989 84.5618 89.4267C79.3279 98.7544 74.621 118.97 74.621 118.97V118.981Z" fill="black"/>
<path d="M103.266 162.225C84.889 161.338 70.91 140.529 72.0956 115.844C72.658 104.064 76.5543 93.1101 83.0599 84.9984C89.7834 76.6181 98.4626 72.2203 107.583 72.6813C116.703 73.1424 124.921 78.3104 130.803 87.3037C136.503 95.988 139.33 107.271 138.758 119.062C137.633 142.419 123.315 161.014 106.204 162.194C105.226 162.26 104.245 162.27 103.266 162.225ZM87.7364 88.7579C82.0162 95.8867 78.586 105.615 78.0794 116.148C77.066 137.53 88.4762 155.521 103.555 156.246C118.633 156.97 131.74 140.164 132.779 118.753C133.286 108.219 130.798 98.2123 125.797 90.5667C120.984 83.2251 114.407 78.9944 107.294 78.6549C106.536 78.6093 105.776 78.6093 105.019 78.6549C98.7058 79.1261 92.641 82.6373 87.7364 88.7477V88.7579ZM72.121 118.981C71.1938 100.923 73.2154 98.0957 72.3946 92.7707C72.0044 90.2373 68.4375 87.8053 68.4375 87.8053L71.6954 73.3552C71.6954 73.3552 81.5703 75.1032 83.8047 75.1336C87.7871 75.1944 96.0863 72.9701 103.565 72.8029C103.565 72.8029 87.2855 80.1192 82.0516 89.4469C76.8178 98.7747 72.121 118.97 72.121 118.97V118.981Z" fill="#004682"/>
<path d="M81.4334 79.9671C81.3168 80.8639 79.6499 81.3807 77.7094 81.1223C75.7688 80.8639 74.2995 79.9266 74.4211 79.0349C74.5427 78.1431 76.2046 77.6213 78.1451 77.8797C80.0856 78.1381 81.5752 79.0703 81.4334 79.9671Z" fill="#A6A6A6"/>
<path d="M75.2734 79.0656C75.4305 78.6349 77.1177 78.1485 78.962 78.6451L75.2734 79.0656Z" fill="white"/>
<path d="M70.932 87.9219C74.4381 89.8877 75.9379 92.7859 75.5427 96.7987C75.1525 103.76 74.3672 110.656 74.3571 117.618C74.3092 121.092 74.5329 124.565 75.0259 128.004C72.7813 119.523 73.4501 110.58 74.2405 101.941L74.7472 96.7531C75.2944 92.872 74.0683 90.2171 70.9219 87.9219H70.932Z" fill="white"/>
<path d="M89.25 75.9692C94.114 74.5809 99.1655 73.4358 104.252 73.6638C99.1857 74.1148 94.266 75.2497 89.25 75.9692Z" fill="white"/>
<path opacity="0.1" d="M89.2431 89.1178C83.7153 96.2111 80.4017 105.878 79.9052 116.356C78.9172 137.636 89.9625 155.511 104.534 156.236C119.106 156.96 131.778 140.24 132.781 118.971C133.288 108.498 130.871 98.5418 126.037 90.9418C121.381 83.6357 115.027 79.4303 108.147 79.0909C107.415 79.0452 106.68 79.0452 105.948 79.0909C99.8425 79.5469 93.9855 83.0327 89.2431 89.1178Z" fill="#EBEBEB"/>
<g opacity="0.2">
<path d="M117.207 81.9484L79.866 120.369C79.8305 119.041 79.866 117.709 79.9116 116.351C80.0883 112.387 80.6965 108.454 81.7255 104.622L106.552 79.0908C107.059 79.0908 107.621 79.0908 108.158 79.0908C111.366 79.2734 114.477 80.2558 117.207 81.9484Z" fill="white"/>
<path d="M130.218 99.8139L86.731 144.558C85.9313 143.317 85.2071 142.03 84.5625 140.702L128.496 95.4971C129.151 96.9022 129.726 98.3435 130.218 99.8139Z" fill="white"/>
<path d="M131.91 126.545C131.379 129.431 130.603 132.267 129.589 135.021L109.348 155.845C107.768 156.186 106.149 156.318 104.535 156.236C104.079 156.21 103.623 156.175 103.172 156.114L131.91 126.545Z" fill="white"/>
<path d="M131.991 106.699L90.5206 149.366C90.323 149.173 90.1355 148.971 89.9531 148.763L131.799 105.696C131.875 106.031 131.93 106.37 131.991 106.699Z" fill="white"/>
</g>
<path d="M163.009 120.166L167.062 115.763C160.547 109.734 145.21 101.313 133.719 112.485L137.894 116.782C148.189 106.755 162.406 119.619 163.009 120.166Z" fill="#C31F82"/>
<path d="M201.784 167.706C190.087 165.559 179.721 158.857 172.962 149.072C166.203 139.287 163.603 127.22 165.735 115.52C167.331 106.795 171.479 98.7405 177.653 92.3734C183.827 86.0063 191.751 81.6129 200.422 79.7488C209.093 77.8847 218.122 78.6336 226.367 81.9008C234.613 85.168 241.704 90.8068 246.745 98.1041C251.786 105.401 254.55 114.03 254.687 122.898C254.824 131.766 252.329 140.475 247.517 147.925C242.704 155.375 235.791 161.231 227.65 164.752C219.51 168.273 210.509 169.301 201.784 167.706ZM171.632 116.614C170.189 124.566 171.265 132.769 174.711 140.079C178.156 147.389 183.798 153.441 190.85 157.389C197.901 161.337 206.01 162.984 214.042 162.1C222.075 161.215 229.631 157.845 235.656 152.458C241.68 147.071 245.871 139.937 247.644 132.053C249.417 124.168 248.684 115.927 245.546 108.48C242.408 101.033 237.022 94.7513 230.141 90.5133C223.26 86.2753 215.228 84.2922 207.165 84.841C198.556 85.4428 190.392 88.8916 183.959 94.644C177.526 100.397 173.189 108.126 171.632 116.614Z" fill="#004682"/>
<path d="M249.791 104.434C246.706 94.189 228.734 82.9258 228.734 82.9258C236.01 84.7143 244.036 88.3522 247.937 89.1628C250.126 89.6138 263.4 90.9717 263.4 90.9717L263.451 109.171C263.451 109.171 259.803 109.374 258.891 111.76C256.935 116.781 257.923 117.997 253.1 135.416C253.054 135.416 252.831 114.674 249.791 104.434Z" fill="#004682"/>
<g opacity="0.1">
<path d="M201.784 167.706C190.087 165.559 179.721 158.857 172.962 149.072C166.203 139.287 163.603 127.22 165.735 115.52C167.331 106.795 171.479 98.7405 177.653 92.3734C183.827 86.0063 191.751 81.6129 200.422 79.7488C209.093 77.8847 218.122 78.6336 226.367 81.9008C234.613 85.168 241.704 90.8068 246.745 98.1041C251.786 105.401 254.55 114.03 254.687 122.898C254.824 131.766 252.329 140.475 247.517 147.925C242.704 155.375 235.791 161.231 227.65 164.752C219.51 168.273 210.509 169.301 201.784 167.706ZM171.632 116.614C170.189 124.566 171.265 132.769 174.711 140.079C178.156 147.389 183.798 153.441 190.85 157.389C197.901 161.337 206.01 162.984 214.042 162.1C222.075 161.215 229.631 157.845 235.656 152.458C241.68 147.071 245.871 139.937 247.644 132.053C249.417 124.168 248.684 115.927 245.546 108.48C242.408 101.033 237.022 94.7513 230.141 90.5133C223.26 86.2753 215.228 84.2922 207.165 84.841C198.556 85.4428 190.392 88.8916 183.959 94.644C177.526 100.397 173.189 108.126 171.632 116.614Z" fill="black"/>
<path d="M249.784 104.434C246.698 94.189 228.727 82.9258 228.727 82.9258C236.002 84.7143 244.028 88.3522 247.929 89.1628C250.118 89.6138 263.393 90.9717 263.393 90.9717L263.443 109.171C263.443 109.171 259.795 109.374 258.883 111.76C256.928 116.781 257.916 117.997 253.092 135.416C253.047 135.416 252.824 114.674 249.784 104.434Z" fill="black"/>
</g>
<path d="M197.8 167.053C186.112 164.905 175.753 158.21 168.996 148.435C162.238 138.661 159.632 126.605 161.75 114.912C163.336 106.178 167.478 98.1107 173.65 91.7313C179.823 85.3518 187.749 80.9468 196.426 79.0737C205.103 77.2006 214.141 77.9435 222.396 81.2086C230.65 84.4736 237.751 90.114 242.798 97.4158C247.846 104.718 250.615 113.353 250.753 122.229C250.892 131.104 248.394 139.822 243.577 147.278C238.759 154.734 231.838 160.593 223.689 164.114C215.541 167.635 206.531 168.659 197.8 167.058V167.053ZM167.648 115.986C166.198 123.944 167.271 132.156 170.716 139.474C174.161 146.792 179.806 152.852 186.862 156.806C193.919 160.759 202.034 162.41 210.075 161.526C218.115 160.643 225.679 157.269 231.708 151.878C237.738 146.486 241.933 139.345 243.706 131.453C245.48 123.562 244.744 115.313 241.601 107.86C238.457 100.407 233.065 94.1217 226.175 89.883C219.286 85.6443 211.245 83.6638 203.175 84.218C194.568 84.8206 186.406 88.2691 179.974 94.0205C173.542 99.7719 169.205 107.499 167.648 115.986Z" fill="#004682"/>
<path d="M245.776 103.806C242.69 93.5611 224.719 82.2979 224.719 82.2979C231.994 84.0864 240.02 87.7243 243.921 88.5349C246.11 88.9859 259.385 90.3437 259.385 90.3437L259.436 107.008C259.436 107.008 255.788 108.113 254.876 110.494C252.915 115.515 253.903 117.369 249.079 134.814C249.064 134.773 248.861 114.046 245.776 103.806Z" fill="#004682"/>
<path d="M253.704 97.8269C253.582 98.7237 251.915 99.2405 249.98 98.9821C248.045 98.7237 246.565 97.7914 246.687 96.8946C246.808 95.9978 248.475 95.481 250.411 95.7394C252.346 95.9978 253.846 96.9351 253.704 97.8269Z" fill="#A6A6A6"/>
<path d="M247.531 96.9302C247.688 96.4995 249.376 96.008 251.22 96.5096L247.531 96.9302Z" fill="white"/>
<path d="M185.359 85.5608C189.201 82.6348 193.906 81.0682 198.735 81.1072C194.175 82.4448 189.788 83.8938 185.359 85.5608Z" fill="white"/>
<path d="M166.383 107.92C168.653 98.856 176.232 90.1109 184.577 86.0322C176.764 91.6056 170.213 99.084 166.383 107.92Z" fill="white"/>
<path opacity="0.1" d="M169.494 115.987C165.745 137.049 179.415 157.315 199.975 161.161C220.536 165.007 240.306 150.992 244.055 129.935C247.804 108.878 234.13 88.6012 213.569 84.7607C210.477 84.1787 207.324 83.9965 204.186 84.2185C187.298 85.4092 172.666 98.1772 169.494 115.987Z" fill="#EBEBEB"/>
<g opacity="0.2">
<path d="M244.642 124.752L208.522 161.738C205.661 161.87 202.794 161.67 199.98 161.141C198.761 160.915 197.556 160.625 196.367 160.274L243.203 112.298C244.348 116.345 244.834 120.55 244.642 124.752Z" fill="white"/>
<path d="M211.639 84.4514L169.196 127.944C168.694 123.965 168.796 119.934 169.5 115.986C169.672 115.003 169.89 114.026 170.133 113.068L197.098 85.4192C199.418 84.7883 201.793 84.3861 204.191 84.2184C206.675 84.0396 209.171 84.1177 211.639 84.4514Z" fill="white"/>
<path d="M238.485 101.733L186.05 155.44C184.852 154.643 183.703 153.775 182.609 152.841L235.956 98.207C236.867 99.3324 237.711 100.51 238.485 101.733Z" fill="white"/>
<path d="M222.079 87.4259L172.111 138.599C171.483 137.144 170.945 135.652 170.5 134.13L217.716 85.7539C219.204 86.2201 220.661 86.7785 222.079 87.4259Z" fill="white"/>
<path d="M244.157 129.397C244.131 129.575 244.096 129.757 244.065 129.935C244.015 130.249 243.954 130.563 243.888 130.867L214.501 160.983C214.03 161.084 213.549 161.176 213.062 161.257L244.157 129.397Z" fill="white"/>
<path d="M232.979 94.9137L179.414 149.796C179.221 149.593 179.034 149.385 178.852 149.178L232.381 94.3311L232.979 94.9137Z" fill="white"/>
</g>
<g opacity="0.1">
<path d="M285.65 154.771C287.484 155.541 294.699 155.932 295.935 154.376C297.8 152.02 275.218 119.188 261.857 113.372C249.352 107.976 75.885 74.4798 72.2471 73.9326L69.0703 88.1598C93.6386 92.0004 249.53 116.837 259.172 121.037C265.459 123.768 273.47 138.178 279.226 148.134C281.551 152.177 283.522 153.88 285.65 154.771Z" fill="black"/>
</g>
</svg>
