<svg width="220" height="43" viewBox="0 0 220 43" fill="none" xmlns="http://www.w3.org/2000/svg">
<path d="M57.1026 18.0382C54.9657 18.0382 53.4066 17.6302 52.4252 16.8142C51.4597 15.9982 51.056 14.7582 51.2143 13.0942C51.246 12.8542 51.3647 12.7342 51.5705 12.7342H54.752C54.9736 12.7342 55.0765 12.8382 55.0607 13.0462C55.0448 13.5742 55.2111 13.9822 55.5593 14.2702C55.9233 14.5422 56.4773 14.6782 57.2213 14.6782C57.9652 14.6782 58.5034 14.5822 58.8358 14.3902C59.184 14.1982 59.3581 13.8942 59.3581 13.4782C59.3581 13.3022 59.3186 13.1422 59.2394 12.9982C59.1603 12.8382 59.0178 12.6942 58.812 12.5662C58.6063 12.4222 58.3214 12.2782 57.9573 12.1342L54.5621 10.6222C53.739 10.2542 53.0979 9.86219 52.6389 9.44619C52.1799 9.01419 51.8554 8.53419 51.6654 8.00619C51.4755 7.46219 51.3805 6.83819 51.3805 6.13419C51.3964 4.74219 51.8712 3.66219 52.8051 2.89419C53.739 2.12619 55.1398 1.74219 57.0076 1.74219C58.4005 1.74219 59.556 1.92619 60.474 2.29419C61.3921 2.64619 62.0569 3.17419 62.4685 3.87819C62.8958 4.56619 63.0541 5.45419 62.9433 6.54219C62.9275 6.81419 62.8167 6.95019 62.6109 6.95019H59.4294C59.3186 6.95019 59.2315 6.91819 59.1682 6.85419C59.1207 6.77419 59.1049 6.67019 59.1207 6.54219C59.1524 6.11019 58.9862 5.75019 58.6221 5.46219C58.2739 5.17419 57.7674 5.03019 57.1026 5.03019C56.5011 5.03019 56.05 5.13419 55.7492 5.34219C55.4485 5.53419 55.2981 5.82219 55.2981 6.20619C55.2981 6.39819 55.3456 6.57419 55.4406 6.73419C55.5355 6.87819 55.6859 7.02219 55.8917 7.16619C56.0975 7.29419 56.3744 7.43819 56.7227 7.59819L60.0942 9.06219C60.9014 9.41419 61.5425 9.79819 62.0173 10.2142C62.4922 10.6302 62.8246 11.1182 63.0145 11.6782C63.2045 12.2222 63.2915 12.8542 63.2757 13.5742C63.2599 15.0462 62.7692 16.1582 61.8037 16.9102C60.8381 17.6622 59.2711 18.0382 57.1026 18.0382Z" fill="#0EBBE3"/>
<path d="M71.5931 17.7502C71.3874 17.7502 71.2845 17.6382 71.2845 17.4142V5.46219H67.3906C67.1691 5.46219 67.0583 5.35019 67.0583 5.12619V2.36619C67.0583 2.14219 67.1691 2.03019 67.3906 2.03019H79.0721C79.2779 2.03019 79.3808 2.14219 79.3808 2.36619V5.12619C79.3808 5.35019 79.2779 5.46219 79.0721 5.46219H75.1783V17.4142C75.1783 17.6382 75.0675 17.7502 74.8459 17.7502H71.5931Z" fill="#0EBBE3"/>
<path d="M90.294 18.0382C88.1255 18.0382 86.4872 17.5342 85.3792 16.5262C84.2712 15.5182 83.7172 13.9502 83.7172 11.8222V2.36619C83.7172 2.14219 83.828 2.03019 84.0496 2.03019H87.3261C87.5319 2.03019 87.6348 2.14219 87.6348 2.36619V11.6302C87.6348 12.5742 87.8326 13.3102 88.2284 13.8382C88.6399 14.3662 89.3284 14.6302 90.294 14.6302C91.2437 14.6302 91.9164 14.3662 92.3121 13.8382C92.7237 13.3102 92.9295 12.5742 92.9295 11.6302V2.36619C92.9295 2.14219 93.0403 2.03019 93.2618 2.03019H96.5146C96.7362 2.03019 96.847 2.14219 96.847 2.36619V11.8222C96.847 13.9342 96.293 15.5022 95.185 16.5262C94.077 17.5342 92.4467 18.0382 90.294 18.0382Z" fill="#0EBBE3"/>
<path d="M102.477 17.7502C102.256 17.7502 102.145 17.6382 102.145 17.4142V2.36619C102.145 2.14219 102.256 2.03019 102.477 2.03019H108.057C110.558 2.03019 112.41 2.61419 113.613 3.78219C114.816 4.93419 115.417 6.64619 115.417 8.91819V10.6702C115.417 13.0062 114.816 14.7742 113.613 15.9742C112.41 17.1582 110.558 17.7502 108.057 17.7502H102.477ZM106.062 14.3662H107.796C109.078 14.3662 110.012 14.0382 110.597 13.3822C111.199 12.7102 111.5 11.7582 111.5 10.5262V9.06219C111.5 7.89419 111.199 6.99819 110.597 6.37419C110.012 5.73419 109.078 5.41419 107.796 5.41419H106.062V14.3662Z" fill="#0EBBE3"/>
<path d="M120.74 17.7502C120.518 17.7502 120.407 17.6382 120.407 17.4142V2.36619C120.407 2.14219 120.518 2.03019 120.74 2.03019H130.617C130.823 2.03019 130.925 2.14219 130.925 2.36619V5.12619C130.925 5.35019 130.823 5.46219 130.617 5.46219H124.325V8.22219H130.047C130.253 8.22219 130.356 8.33419 130.356 8.55819V11.1262C130.356 11.3502 130.253 11.4622 130.047 11.4622H124.325V14.3182H130.617C130.823 14.3182 130.925 14.4302 130.925 14.6542V17.4142C130.925 17.6382 130.823 17.7502 130.617 17.7502H120.74Z" fill="#0EBBE3"/>
<path d="M136.382 17.7502C136.161 17.7502 136.05 17.6382 136.05 17.4142V2.36619C136.05 2.14219 136.161 2.03019 136.382 2.03019H140.537C140.711 2.03019 140.838 2.11019 140.917 2.27019L143.909 8.29419C144.13 8.74219 144.36 9.22219 144.597 9.73419C144.835 10.2462 145.048 10.7502 145.238 11.2462C145.444 11.7422 145.61 12.1822 145.737 12.5662H145.808C145.761 12.1502 145.721 11.6782 145.689 11.1502C145.658 10.6222 145.634 10.0942 145.618 9.56619C145.602 9.02219 145.594 8.55019 145.594 8.15019V2.36619C145.594 2.14219 145.697 2.03019 145.903 2.03019H149.037C149.259 2.03019 149.37 2.14219 149.37 2.36619V17.4142C149.37 17.6382 149.259 17.7502 149.037 17.7502H144.882C144.724 17.7502 144.597 17.6702 144.502 17.5102L141.653 11.7742C141.432 11.3422 141.21 10.8622 140.988 10.3342C140.783 9.80619 140.577 9.28619 140.371 8.77419C140.165 8.24619 139.975 7.78219 139.801 7.38219H139.73C139.762 7.81419 139.785 8.30219 139.801 8.84619C139.817 9.37419 139.825 9.91019 139.825 10.4542C139.825 10.9982 139.825 11.4942 139.825 11.9422V17.4142C139.825 17.6382 139.714 17.7502 139.493 17.7502H136.382Z" fill="#0EBBE3"/>
<path d="M158.361 17.7502C158.156 17.7502 158.053 17.6382 158.053 17.4142V5.46219H154.159C153.937 5.46219 153.826 5.35019 153.826 5.12619V2.36619C153.826 2.14219 153.937 2.03019 154.159 2.03019H165.84C166.046 2.03019 166.149 2.14219 166.149 2.36619V5.12619C166.149 5.35019 166.046 5.46219 165.84 5.46219H161.946V17.4142C161.946 17.6382 161.836 17.7502 161.614 17.7502H158.361Z" fill="#0EBBE3"/>
<path d="M170.196 10.0702C169.959 10.0702 169.864 9.95019 169.911 9.71019L171.169 2.34219C171.201 2.13419 171.32 2.03019 171.526 2.03019H175.301C175.586 2.03019 175.681 2.17419 175.586 2.46219L173.33 9.78219C173.283 9.97419 173.156 10.0702 172.95 10.0702H170.196Z" fill="#0EBBE3"/>
<path d="M185.419 18.0382C183.282 18.0382 181.723 17.6302 180.742 16.8142C179.776 15.9982 179.372 14.7582 179.531 13.0942C179.562 12.8542 179.681 12.7342 179.887 12.7342H183.068C183.29 12.7342 183.393 12.8382 183.377 13.0462C183.361 13.5742 183.527 13.9822 183.876 14.2702C184.24 14.5422 184.794 14.6782 185.538 14.6782C186.282 14.6782 186.82 14.5822 187.152 14.3902C187.5 14.1982 187.674 13.8942 187.674 13.4782C187.674 13.3022 187.635 13.1422 187.556 12.9982C187.477 12.8382 187.334 12.6942 187.128 12.5662C186.923 12.4222 186.638 12.2782 186.274 12.1342L182.878 10.6222C182.055 10.2542 181.414 9.86219 180.955 9.44619C180.496 9.01419 180.172 8.53419 179.982 8.00619C179.792 7.46219 179.697 6.83819 179.697 6.13419C179.713 4.74219 180.188 3.66219 181.121 2.89419C182.055 2.12619 183.456 1.74219 185.324 1.74219C186.717 1.74219 187.872 1.92619 188.79 2.29419C189.708 2.64619 190.373 3.17419 190.785 3.87819C191.212 4.56619 191.37 5.45419 191.26 6.54219C191.244 6.81419 191.133 6.95019 190.927 6.95019H187.746C187.635 6.95019 187.548 6.91819 187.485 6.85419C187.437 6.77419 187.421 6.67019 187.437 6.54219C187.469 6.11019 187.302 5.75019 186.938 5.46219C186.59 5.17419 186.084 5.03019 185.419 5.03019C184.817 5.03019 184.366 5.13419 184.066 5.34219C183.765 5.53419 183.614 5.82219 183.614 6.20619C183.614 6.39819 183.662 6.57419 183.757 6.73419C183.852 6.87819 184.002 7.02219 184.208 7.16619C184.414 7.29419 184.691 7.43819 185.039 7.59819L188.41 9.06219C189.218 9.41419 189.859 9.79819 190.334 10.2142C190.809 10.6302 191.141 11.1182 191.331 11.6782C191.521 12.2222 191.608 12.8542 191.592 13.5742C191.576 15.0462 191.086 16.1582 190.12 16.9102C189.154 17.6622 187.587 18.0382 185.419 18.0382Z" fill="#0EBBE3"/>
<path d="M50.6445 41.7502C50.3912 41.7502 50.3042 41.6222 50.3833 41.3662L55.3218 26.2942C55.3852 26.1182 55.5118 26.0302 55.7017 26.0302H59.928C60.1179 26.0302 60.2445 26.1182 60.3078 26.2942L65.2701 41.3662C65.3334 41.6222 65.2464 41.7502 65.0089 41.7502H61.4475C61.2417 41.7502 61.1151 41.6622 61.0676 41.4862L58.6696 32.7982C58.5113 32.2222 58.3609 31.6462 58.2185 31.0702C58.076 30.4942 57.9415 29.9262 57.8148 29.3662H57.7674C57.6407 29.9422 57.5062 30.5182 57.3637 31.0942C57.2213 31.6702 57.0709 32.2462 56.9126 32.8222L54.5621 41.4622C54.5146 41.6542 54.388 41.7502 54.1822 41.7502H50.6445ZM54.6808 38.9422L55.2981 35.8462H60.2129L60.8539 38.9422H54.6808Z" fill="white"/>
<path d="M74.4608 42.0382C72.324 42.0382 70.7649 41.6302 69.7835 40.8142C68.8179 39.9982 68.4143 38.7582 68.5726 37.0942C68.6043 36.8542 68.723 36.7342 68.9287 36.7342H72.1103C72.3319 36.7342 72.4348 36.8382 72.4189 37.0462C72.4031 37.5742 72.5693 37.9822 72.9175 38.2702C73.2816 38.5422 73.8356 38.6782 74.5795 38.6782C75.3235 38.6782 75.8617 38.5822 76.1941 38.3902C76.5423 38.1982 76.7164 37.8942 76.7164 37.4782C76.7164 37.3022 76.6768 37.1422 76.5977 36.9982C76.5185 36.8382 76.3761 36.6942 76.1703 36.5662C75.9645 36.4222 75.6796 36.2782 75.3156 36.1342L71.9203 34.6222C71.0973 34.2542 70.4562 33.8622 69.9972 33.4462C69.5381 33.0142 69.2137 32.5342 69.0237 32.0062C68.8338 31.4622 68.7388 30.8382 68.7388 30.1342C68.7546 28.7422 69.2295 27.6622 70.1634 26.8942C71.0973 26.1262 72.4981 25.7422 74.3659 25.7422C75.7588 25.7422 76.9143 25.9262 77.8323 26.2942C78.7504 26.6462 79.4152 27.1742 79.8267 27.8782C80.2541 28.5662 80.4124 29.4542 80.3016 30.5422C80.2858 30.8142 80.175 30.9502 79.9692 30.9502H76.7876C76.6768 30.9502 76.5898 30.9182 76.5265 30.8542C76.479 30.7742 76.4631 30.6702 76.479 30.5422C76.5106 30.1102 76.3444 29.7502 75.9804 29.4622C75.6321 29.1742 75.1256 29.0302 74.4608 29.0302C73.8593 29.0302 73.4082 29.1342 73.1075 29.3422C72.8067 29.5342 72.6564 29.8222 72.6564 30.2062C72.6564 30.3982 72.7039 30.5742 72.7988 30.7342C72.8938 30.8782 73.0442 31.0222 73.2499 31.1662C73.4557 31.2942 73.7327 31.4382 74.0809 31.5982L77.4524 33.0622C78.2597 33.4142 78.9007 33.7982 79.3756 34.2142C79.8505 34.6302 80.1829 35.1182 80.3728 35.6782C80.5627 36.2222 80.6498 36.8542 80.634 37.5742C80.6181 39.0462 80.1275 40.1582 79.1619 40.9102C78.1964 41.6622 76.6293 42.0382 74.4608 42.0382Z" fill="white"/>
<path d="M90.3584 42.0382C88.2215 42.0382 86.6624 41.6302 85.681 40.8142C84.7155 39.9982 84.3118 38.7582 84.4701 37.0942C84.5018 36.8542 84.6205 36.7342 84.8263 36.7342H88.0078C88.2294 36.7342 88.3323 36.8382 88.3165 37.0462C88.3006 37.5742 88.4668 37.9822 88.8151 38.2702C89.1791 38.5422 89.7331 38.6782 90.4771 38.6782C91.221 38.6782 91.7592 38.5822 92.0916 38.3902C92.4398 38.1982 92.6139 37.8942 92.6139 37.4782C92.6139 37.3022 92.5744 37.1422 92.4952 36.9982C92.4161 36.8382 92.2736 36.6942 92.0678 36.5662C91.8621 36.4222 91.5772 36.2782 91.2131 36.1342L87.8179 34.6222C86.9948 34.2542 86.3537 33.8622 85.8947 33.4462C85.4357 33.0142 85.1112 32.5342 84.9212 32.0062C84.7313 31.4622 84.6363 30.8382 84.6363 30.1342C84.6522 28.7422 85.127 27.6622 86.0609 26.8942C86.9948 26.1262 88.3956 25.7422 90.2634 25.7422C91.6563 25.7422 92.8118 25.9262 93.7298 26.2942C94.6479 26.6462 95.3127 27.1742 95.7242 27.8782C96.1516 28.5662 96.3099 29.4542 96.1991 30.5422C96.1833 30.8142 96.0725 30.9502 95.8667 30.9502H92.6852C92.5744 30.9502 92.4873 30.9182 92.424 30.8542C92.3765 30.7742 92.3607 30.6702 92.3765 30.5422C92.4082 30.1102 92.242 29.7502 91.8779 29.4622C91.5297 29.1742 91.0232 29.0302 90.3584 29.0302C89.7569 29.0302 89.3058 29.1342 89.005 29.3422C88.7043 29.5342 88.5539 29.8222 88.5539 30.2062C88.5539 30.3982 88.6014 30.5742 88.6964 30.7342C88.7913 30.8782 88.9417 31.0222 89.1475 31.1662C89.3532 31.2942 89.6302 31.4382 89.9785 31.5982L93.35 33.0622C94.1572 33.4142 94.7983 33.7982 95.2731 34.2142C95.748 34.6302 96.0804 35.1182 96.2703 35.6782C96.4603 36.2222 96.5473 36.8542 96.5315 37.5742C96.5157 39.0462 96.025 40.1582 95.0594 40.9102C94.0939 41.6622 92.5269 42.0382 90.3584 42.0382Z" fill="white"/>
<path d="M107.768 42.0382C105.552 42.0382 103.874 41.5102 102.735 40.4542C101.595 39.3982 101.025 37.8382 101.025 35.7742V32.0062C101.025 29.9262 101.595 28.3662 102.735 27.3262C103.874 26.2702 105.552 25.7422 107.768 25.7422C109.984 25.7422 111.662 26.2702 112.802 27.3262C113.957 28.3662 114.535 29.9262 114.535 32.0062V35.7742C114.535 37.8382 113.957 39.3982 112.802 40.4542C111.662 41.5102 109.984 42.0382 107.768 42.0382ZM107.768 38.5822C108.734 38.5822 109.446 38.3182 109.905 37.7902C110.38 37.2622 110.617 36.5022 110.617 35.5102V32.2702C110.617 31.2782 110.38 30.5182 109.905 29.9902C109.446 29.4622 108.734 29.1982 107.768 29.1982C106.818 29.1982 106.106 29.4622 105.631 29.9902C105.172 30.5182 104.943 31.2782 104.943 32.2702V35.5102C104.943 36.5022 105.172 37.2622 105.631 37.7902C106.106 38.3182 106.818 38.5822 107.768 38.5822Z" fill="white"/>
<path d="M126.076 42.0382C123.971 42.0382 122.325 41.5262 121.137 40.5022C119.966 39.4782 119.38 37.8942 119.38 35.7502V32.0782C119.38 29.9022 119.966 28.3022 121.137 27.2782C122.325 26.2542 123.971 25.7422 126.076 25.7422C127.611 25.7422 128.901 25.9822 129.946 26.4622C130.991 26.9422 131.758 27.6222 132.249 28.5022C132.74 29.3662 132.906 30.3902 132.748 31.5742C132.732 31.6702 132.692 31.7502 132.629 31.8142C132.582 31.8782 132.51 31.9102 132.415 31.9102H129.139C128.933 31.9102 128.83 31.7902 128.83 31.5502C128.846 30.8302 128.64 30.2542 128.213 29.8222C127.785 29.3742 127.089 29.1502 126.123 29.1502C125.237 29.1502 124.541 29.3982 124.034 29.8942C123.543 30.3742 123.298 31.1502 123.298 32.2222V35.5582C123.298 36.6302 123.543 37.4142 124.034 37.9102C124.541 38.3902 125.237 38.6302 126.123 38.6302C127.136 38.6302 127.849 38.3982 128.26 37.9342C128.672 37.4542 128.862 36.8862 128.83 36.2302C128.83 35.9902 128.933 35.8702 129.139 35.8702H132.392C132.597 35.8702 132.716 35.9822 132.748 36.2062C132.859 37.3902 132.661 38.4222 132.154 39.3022C131.663 40.1662 130.904 40.8382 129.875 41.3182C128.846 41.7982 127.58 42.0382 126.076 42.0382Z" fill="white"/>
<path d="M138.214 41.7502C137.992 41.7502 137.882 41.6382 137.882 41.4142V26.3662C137.882 26.1422 137.992 26.0302 138.214 26.0302H141.467C141.688 26.0302 141.799 26.1422 141.799 26.3662V41.4142C141.799 41.6382 141.688 41.7502 141.467 41.7502H138.214Z" fill="white"/>
<path d="M146.006 41.7502C145.753 41.7502 145.666 41.6222 145.745 41.3662L150.684 26.2942C150.747 26.1182 150.874 26.0302 151.064 26.0302H155.29C155.48 26.0302 155.606 26.1182 155.67 26.2942L160.632 41.3662C160.695 41.6222 160.608 41.7502 160.371 41.7502H156.809C156.604 41.7502 156.477 41.6622 156.43 41.4862L154.032 32.7982C153.873 32.2222 153.723 31.6462 153.58 31.0702C153.438 30.4942 153.303 29.9262 153.177 29.3662H153.129C153.003 29.9422 152.868 30.5182 152.726 31.0942C152.583 31.6702 152.433 32.2462 152.275 32.8222L149.924 41.4622C149.877 41.6542 149.75 41.7502 149.544 41.7502H146.006ZM150.043 38.9422L150.66 35.8462H155.575L156.216 38.9422H150.043Z" fill="white"/>
<path d="M166.746 41.7502C166.541 41.7502 166.438 41.6382 166.438 41.4142V29.4622H162.544C162.322 29.4622 162.212 29.3502 162.212 29.1262V26.3662C162.212 26.1422 162.322 26.0302 162.544 26.0302H174.225C174.431 26.0302 174.534 26.1422 174.534 26.3662V29.1262C174.534 29.3502 174.431 29.4622 174.225 29.4622H170.332V41.4142C170.332 41.6382 170.221 41.7502 169.999 41.7502H166.746Z" fill="white"/>
<path d="M179.322 41.7502C179.1 41.7502 178.989 41.6382 178.989 41.4142V26.3662C178.989 26.1422 179.1 26.0302 179.322 26.0302H182.574C182.796 26.0302 182.907 26.1422 182.907 26.3662V41.4142C182.907 41.6382 182.796 41.7502 182.574 41.7502H179.322Z" fill="white"/>
<path d="M194.783 42.0382C192.567 42.0382 190.889 41.5102 189.75 40.4542C188.61 39.3982 188.04 37.8382 188.04 35.7742V32.0062C188.04 29.9262 188.61 28.3662 189.75 27.3262C190.889 26.2702 192.567 25.7422 194.783 25.7422C196.999 25.7422 198.677 26.2702 199.817 27.3262C200.972 28.3662 201.55 29.9262 201.55 32.0062V35.7742C201.55 37.8382 200.972 39.3982 199.817 40.4542C198.677 41.5102 196.999 42.0382 194.783 42.0382ZM194.783 38.5822C195.749 38.5822 196.461 38.3182 196.92 37.7902C197.395 37.2622 197.632 36.5022 197.632 35.5102V32.2702C197.632 31.2782 197.395 30.5182 196.92 29.9902C196.461 29.4622 195.749 29.1982 194.783 29.1982C193.833 29.1982 193.121 29.4622 192.646 29.9902C192.187 30.5182 191.958 31.2782 191.958 32.2702V35.5102C191.958 36.5022 192.187 37.2622 192.646 37.7902C193.121 38.3182 193.833 38.5822 194.783 38.5822Z" fill="white"/>
<path d="M207.013 41.7502C206.791 41.7502 206.68 41.6382 206.68 41.4142V26.3662C206.68 26.1422 206.791 26.0302 207.013 26.0302H211.168C211.342 26.0302 211.468 26.1102 211.548 26.2702L214.539 32.2942C214.761 32.7422 214.99 33.2222 215.228 33.7342C215.465 34.2462 215.679 34.7502 215.869 35.2462C216.075 35.7422 216.241 36.1822 216.367 36.5662H216.439C216.391 36.1502 216.352 35.6782 216.32 35.1502C216.288 34.6222 216.264 34.0942 216.249 33.5662C216.233 33.0222 216.225 32.5502 216.225 32.1502V26.3662C216.225 26.1422 216.328 26.0302 216.534 26.0302H219.668C219.889 26.0302 220 26.1422 220 26.3662V41.4142C220 41.6382 219.889 41.7502 219.668 41.7502H215.513C215.354 41.7502 215.228 41.6702 215.133 41.5102L212.284 35.7742C212.062 35.3422 211.84 34.8622 211.619 34.3342C211.413 33.8062 211.207 33.2862 211.001 32.7742C210.796 32.2462 210.606 31.7822 210.432 31.3822H210.36C210.392 31.8142 210.416 32.3022 210.432 32.8462C210.447 33.3742 210.455 33.9102 210.455 34.4542C210.455 34.9982 210.455 35.4942 210.455 35.9422V41.4142C210.455 41.6382 210.345 41.7502 210.123 41.7502H207.013Z" fill="white"/>
<path d="M3.51959 21.8629C3.51959 19.9539 3.82479 18.1182 4.38808 16.4049L4.51657 16.0294L5.17756 16.2776C4.56034 18.0187 4.22318 19.8996 4.22318 21.8629C4.22318 23.8261 4.56034 25.707 5.17756 27.4481L4.51657 27.6956C3.87164 25.8763 3.51959 23.9119 3.51959 21.8629ZM35.5906 16.0294C36.2357 17.849 36.5882 19.8135 36.5882 21.8629C36.5882 23.912 36.2355 25.8762 35.5906 27.6956L34.9303 27.4481C35.5475 25.707 35.8846 23.8261 35.8846 21.8629C35.8846 19.8996 35.5475 18.0187 34.9303 16.2776L35.5906 16.0294Z" fill="#0EBBE3"/>
<path d="M33.0694 21.861C33.0694 29.2598 27.2418 35.2576 20.053 35.2576C12.8643 35.2576 7.03663 29.2598 7.03663 21.861C7.03663 14.4623 12.8643 8.46439 20.053 8.46439C27.2418 8.46439 33.0694 14.4623 33.0694 21.861Z" fill="#0EBBE3"/>
<path d="M32.4206 21.861C32.4206 14.8309 26.8835 9.13185 20.0529 9.13185C13.2223 9.13192 7.68513 14.831 7.68513 21.861C7.68514 28.8911 13.2224 34.5902 20.0529 34.5902L20.053 35.2576L19.7172 35.2531C12.7952 35.0727 7.21629 29.3307 7.04107 22.2065L7.03663 21.861C7.03663 14.4623 12.8643 8.46439 20.053 8.46439C27.2418 8.46439 33.0694 14.4623 33.0694 21.861L33.0653 22.2065C32.8873 29.4456 27.1295 35.2576 20.053 35.2576L20.0529 34.5902C26.8835 34.5902 32.4206 28.8911 32.4206 21.861Z" fill="#0EBBE3"/>
<path d="M40.1596 21.5C40.1595 10.2707 31.3149 1.16762 20.4044 1.16745C9.49369 1.16745 0.648558 10.2706 0.648501 21.5C0.648501 32.7294 9.49365 41.8325 20.4044 41.8325V42.5L19.8774 42.4935C8.85197 42.206 0 32.9168 0 21.5C5.74901e-05 9.90201 9.13554 0.5 20.4044 0.5L20.9306 0.50717C31.9561 0.794628 40.808 10.0832 40.8081 21.5C40.8081 33.0979 31.6731 42.4998 20.4044 42.5V41.8325C31.3149 41.8324 40.1596 32.7293 40.1596 21.5Z" fill="#0EBBE3"/>
<path d="M20.1112 23.1195C20.4787 27.8479 22.1326 30.6849 24.7053 32.9544C22.6193 32.9761 21.2137 30.3065 19.9274 30.4957C18.6411 30.6848 17.3547 33.1436 15.5171 32.9544C16.6196 32.0088 20.1112 28.7936 20.1112 23.1195ZM19.9274 31.0631C20.4348 31.0631 20.8462 31.4865 20.8462 32.0087C20.8462 32.531 20.4348 32.9544 19.9274 32.9544C19.42 32.9544 19.0086 32.531 19.0086 32.0087C19.0086 31.4865 19.42 31.0631 19.9274 31.0631ZM20.1169 22.5573C17.2355 24.792 16.2573 26.5157 16.0741 30.8791C15.1553 29.5552 16.0741 26.9073 15.1553 25.7725C14.2365 24.6378 13.3176 25.9617 11.8475 26.5291C13.6896 23.9634 15.4325 23.0884 20.1169 22.5573ZM20.4744 22.5573C25.1588 23.0884 26.9016 23.9634 28.7437 26.5291C27.2737 25.9617 26.3548 24.6378 25.436 25.7725C24.5172 26.9073 25.436 29.5552 24.5172 30.8791C24.334 26.5157 23.3558 24.792 20.4744 22.5573ZM14.0527 25.9617C14.5601 25.9617 14.9715 26.3851 14.9715 26.9073C14.9715 27.4296 14.5601 27.853 14.0527 27.853C13.5453 27.853 13.1339 27.4296 13.1339 26.9073C13.1339 26.3851 13.5453 25.9617 14.0527 25.9617ZM26.5386 25.9617C27.046 25.9617 27.4574 26.3851 27.4574 26.9073C27.4574 27.4296 27.046 27.853 26.5386 27.853C26.0311 27.853 25.6198 27.4296 25.6198 26.9073C25.6198 26.3851 26.0312 25.9617 26.5386 25.9617ZM10.5612 17.0725C11.48 18.2073 14.6039 21.8007 20.1169 21.8008C15.5227 22.179 12.7662 23.8812 10.5612 26.5291C10.5401 24.3821 13.1339 22.9355 12.9501 21.6116C12.7663 20.2877 10.3773 18.9638 10.5612 17.0725ZM30.0301 17.0725C30.214 18.9638 27.825 20.2877 27.6412 21.6116C27.4574 22.9355 30.0512 24.3821 30.0301 26.5291C27.8251 23.8812 25.0686 22.179 20.4744 21.8008C25.9874 21.8008 29.1113 18.2073 30.0301 17.0725ZM11.48 20.666C11.9874 20.666 12.3988 21.0894 12.3988 21.6116C12.3988 22.1339 11.9874 22.5573 11.48 22.5573C10.9726 22.5573 10.5612 22.1339 10.5612 21.6116C10.5612 21.0894 10.9726 20.666 11.48 20.666ZM29.1113 20.666C29.6187 20.666 30.0301 21.0894 30.0301 21.6116C30.0301 22.1339 29.6187 22.5573 29.1113 22.5573C28.6038 22.5573 28.1925 22.1339 28.1925 21.6116C28.1925 21.0894 28.6039 20.666 29.1113 20.666ZM16.0727 12.7224C16.2558 17.0858 17.2341 18.8095 20.1155 21.0442C15.4311 20.5132 13.6882 19.6381 11.8461 17.0725C13.3162 17.6399 14.235 18.9638 15.1538 17.829C16.0727 16.6942 15.1538 14.0464 16.0727 12.7224ZM24.5157 12.7224C25.4345 14.0463 24.5158 16.6942 25.4346 17.829C26.3534 18.9638 27.2722 17.6399 28.7423 17.0725C26.9002 19.6381 25.1574 20.5132 20.4729 21.0442C23.3543 18.8095 24.3326 17.0859 24.5157 12.7224ZM15.5171 10.6471C17.3547 10.4579 18.6411 12.9167 19.9274 13.1059C21.2137 13.295 22.6193 10.6254 24.7053 10.6471C22.1326 12.9166 20.4787 15.7536 20.1112 20.482C20.1111 14.808 16.6196 11.5928 15.5171 10.6471ZM14.0513 15.7485C14.5587 15.7485 14.9701 16.1719 14.9701 16.6942C14.9701 17.2165 14.5587 17.6399 14.0513 17.6399C13.5438 17.6398 13.1324 17.2165 13.1324 16.6942C13.1325 16.172 13.5438 15.7486 14.0513 15.7485ZM26.5371 15.7485C27.0446 15.7485 27.4559 16.1719 27.456 16.6942C27.456 17.2165 27.0446 17.6399 26.5371 17.6399C26.0297 17.6398 25.6183 17.2165 25.6183 16.6942C25.6183 16.172 26.0297 15.7486 26.5371 15.7485ZM19.9274 10.6471C20.4348 10.6471 20.8462 11.0706 20.8462 11.5928C20.8462 12.1151 20.4348 12.5385 19.9274 12.5385C19.42 12.5384 19.0086 12.1151 19.0086 11.5928C19.0086 11.0706 19.42 10.6472 19.9274 10.6471Z" fill="white"/>
<path d="M9.99328 10.0981C9.96081 10.0633 9.92682 10.0372 9.89132 10.0199C9.85495 10.0016 9.81255 9.99386 9.76412 9.99655C9.7157 9.99925 9.65631 10.0128 9.58597 10.0372C9.51475 10.0606 9.42802 10.0985 9.32578 10.1508C9.2082 10.2092 9.09121 10.2598 8.97482 10.3026C8.85847 10.3436 8.7451 10.3698 8.63469 10.3814C8.52428 10.393 8.41922 10.383 8.3195 10.3514C8.22069 10.319 8.12916 10.2576 8.04491 10.1674C7.96329 10.08 7.9083 9.98249 7.87992 9.87496C7.85154 9.76743 7.84789 9.65533 7.86896 9.53867C7.88915 9.42107 7.93262 9.30395 7.99937 9.18731C8.06525 9.06972 8.15299 8.95673 8.26258 8.84834C8.4087 8.70382 8.56203 8.6037 8.72256 8.54798C8.88313 8.49042 9.03922 8.47887 9.19084 8.51332C9.34158 8.54684 9.47575 8.62657 9.59335 8.75253L9.1495 9.19151C9.09772 9.13606 9.04067 9.09847 8.97835 9.07875C8.91606 9.05719 8.85067 9.05677 8.78219 9.0775C8.71462 9.09732 8.64705 9.14065 8.57946 9.20749C8.51371 9.27253 8.46811 9.33751 8.44267 9.40245C8.41726 9.46555 8.40937 9.52578 8.41901 9.58314C8.42957 9.6396 8.45415 9.6885 8.49277 9.72986C8.52348 9.76276 8.55979 9.78471 8.60168 9.79571C8.6436 9.80487 8.69152 9.80539 8.74542 9.79727C8.79936 9.78731 8.85973 9.76919 8.92653 9.7429C8.99333 9.71661 9.0661 9.6826 9.14484 9.64088C9.28417 9.56998 9.41467 9.51503 9.53636 9.47604C9.65896 9.43614 9.77358 9.41498 9.88023 9.41255C9.98688 9.41013 10.086 9.42875 10.1775 9.46843C10.2699 9.5072 10.356 9.56936 10.4359 9.65489C10.521 9.74607 10.5791 9.84407 10.6102 9.94889C10.6423 10.0528 10.6491 10.1617 10.6308 10.2757C10.6125 10.3878 10.5704 10.5008 10.5046 10.6147C10.4388 10.7286 10.3507 10.8402 10.2402 10.9495C10.1397 11.0489 10.0283 11.1337 9.90604 11.204C9.78287 11.2734 9.65567 11.3197 9.52443 11.3428C9.39411 11.365 9.26527 11.3569 9.13792 11.3183C9.0106 11.2779 8.89165 11.1985 8.78107 11.08L9.22766 10.6383C9.28559 10.7004 9.34341 10.7444 9.40113 10.7705C9.45798 10.7956 9.51467 10.8055 9.57121 10.8003C9.62866 10.7941 9.68594 10.7736 9.74305 10.7388C9.80016 10.704 9.85748 10.6581 9.91501 10.6012C9.98168 10.5353 10.0268 10.4726 10.0503 10.4132C10.0739 10.3519 10.08 10.2944 10.0685 10.2407C10.057 10.1869 10.0319 10.1394 9.99328 10.0981Z" fill="white"/>
<path d="M11.1092 6.53567L12.6108 8.92685L12.0922 9.27181L10.5907 6.88063L11.1092 6.53567ZM11.8161 6.06547L12.077 6.48097L10.159 7.75678L9.89814 7.34128L11.8161 6.06547Z" fill="white"/>
<path d="M14.3339 4.84851L14.9105 4.61572L15.5738 6.35602C15.6524 6.56233 15.6761 6.75301 15.6449 6.92806C15.6148 7.10263 15.5385 7.25595 15.4161 7.38801C15.2936 7.52007 15.1339 7.62585 14.937 7.70535C14.7389 7.78532 14.5508 7.81998 14.3725 7.80931C14.1955 7.79816 14.0371 7.73958 13.8974 7.63355C13.7588 7.52705 13.6503 7.37064 13.5716 7.16433L12.9084 5.42404L13.4867 5.19054L14.15 6.93083C14.1935 7.04491 14.2456 7.13169 14.3064 7.19118C14.3678 7.24898 14.4369 7.28201 14.5135 7.29029C14.5897 7.29735 14.6726 7.28279 14.7622 7.24661C14.8518 7.21043 14.9216 7.16334 14.9716 7.10534C15.0223 7.04566 15.05 6.97359 15.0545 6.88913C15.0598 6.80299 15.0407 6.70288 14.9972 6.5888L14.3339 4.84851Z" fill="white"/>
<path d="M17.5922 6.80068L16.9937 6.91074L16.9132 6.42497L17.508 6.3156C17.6439 6.29061 17.753 6.23743 17.8354 6.15607C17.9175 6.07342 17.9719 5.96411 17.9985 5.82812C18.0248 5.69085 18.0221 5.53045 17.9902 5.34694L17.9678 5.21797C17.9438 5.07937 17.9089 4.95998 17.8632 4.8598C17.8173 4.75833 17.7613 4.67659 17.6952 4.61459C17.6291 4.55258 17.553 4.51095 17.467 4.48969C17.3822 4.46821 17.2887 4.46686 17.1864 4.48566L16.5805 4.5971L16.4959 4.11009L17.1019 3.99865C17.2864 3.96472 17.4603 3.96585 17.6236 4.00204C17.7881 4.038 17.9362 4.10545 18.0679 4.20439C18.2008 4.3031 18.312 4.42833 18.4014 4.58007C18.4907 4.73182 18.5528 4.90778 18.5876 5.10798L18.6093 5.2331C18.6438 5.43201 18.6448 5.61921 18.6122 5.79471C18.5794 5.96893 18.5173 6.12602 18.4258 6.26601C18.3353 6.40448 18.2196 6.51978 18.0786 6.61192C17.9376 6.70406 17.7755 6.76698 17.5922 6.80068ZM16.8531 4.0444L17.3397 6.84712L16.73 6.95924L16.2434 4.15652L16.8531 4.0444Z" fill="white"/>
<path d="M21.5319 5.96218L21.5287 6.45494L20.0563 6.44472L20.0595 5.95196L21.5319 5.96218ZM20.2858 3.59914L20.2672 6.44618L19.6478 6.44188L19.6665 3.59484L20.2858 3.59914ZM21.3498 4.75243L21.3467 5.22955L20.0643 5.22065L20.0674 4.74353L21.3498 4.75243ZM21.5492 3.60791L21.546 4.10262L20.0717 4.09239L20.0749 3.59768L21.5492 3.60791Z" fill="white"/>
<path d="M25.0448 4.15838L24.4918 6.94801L23.8868 6.82095L23.2204 4.80303L22.8629 6.60594L22.2561 6.4785L22.8091 3.68887L23.416 3.81631L24.0843 5.83463L24.4417 4.03172L25.0448 4.15838Z" fill="white"/>
<path d="M27.5518 5.0291L26.4728 7.6507L25.9043 7.40283L26.9832 4.78122L27.5518 5.0291ZM28.3268 5.36697L28.1393 5.82251L26.0365 4.90575L26.224 4.45021L28.3268 5.36697Z" fill="white"/>
<path d="M29.9218 6.02998L29.7658 6.29391C29.7223 6.36741 29.6635 6.43432 29.5892 6.49466C29.5168 6.55455 29.4379 6.60513 29.3527 6.64639C29.2682 6.68654 29.1853 6.71395 29.1039 6.72863L28.9531 6.45333C29.0299 6.41134 29.105 6.36074 29.1786 6.30152C29.2528 6.24119 29.3208 6.15868 29.3827 6.054L29.5388 5.79008L29.9218 6.02998Z" fill="white"/>
<path d="M30.7883 9.43579C30.8171 9.39775 30.8373 9.35942 30.8489 9.3208C30.8613 9.28114 30.8628 9.23684 30.8533 9.18789C30.8438 9.13894 30.8223 9.08037 30.7889 9.01218C30.7562 8.94296 30.7074 8.85999 30.6426 8.76328C30.5696 8.65181 30.5043 8.53984 30.4466 8.42736C30.3906 8.31466 30.3492 8.2029 30.3224 8.09207C30.2956 7.98124 30.2902 7.87278 30.3064 7.7667C30.3235 7.66142 30.3695 7.55945 30.4443 7.46077C30.5167 7.36518 30.6026 7.29528 30.702 7.25106C30.8014 7.20684 30.9086 7.18716 31.0238 7.19202C31.1398 7.19585 31.2586 7.22346 31.3803 7.27486C31.5028 7.32523 31.6239 7.39853 31.7438 7.49475C31.9036 7.62304 32.0217 7.76498 32.0981 7.92059C32.1763 8.07597 32.2097 8.23335 32.1981 8.39271C32.1873 8.55105 32.1298 8.69909 32.0254 8.83682L31.54 8.44714C31.586 8.3865 31.614 8.32303 31.6241 8.25673C31.6359 8.1902 31.627 8.12353 31.5974 8.05672C31.5687 7.99071 31.5174 7.92803 31.4435 7.8687C31.3716 7.81097 31.3026 7.77376 31.2365 7.75709C31.1722 7.74019 31.1132 7.74073 31.0594 7.75872C31.0066 7.7775 30.9631 7.80951 30.9288 7.85474C30.9015 7.89071 30.8856 7.93082 30.8809 7.97506C30.8781 8.01908 30.8844 8.06796 30.8999 8.12172C30.9172 8.17526 30.9432 8.23418 30.978 8.29849C31.0128 8.36279 31.0558 8.43209 31.1072 8.50636C31.1952 8.63821 31.2666 8.76334 31.3214 8.88176C31.3773 9.00097 31.4139 9.11473 31.4314 9.22304C31.449 9.33134 31.4452 9.43492 31.42 9.53378C31.3959 9.63345 31.3484 9.73005 31.2775 9.82358C31.2019 9.92329 31.1159 9.99645 31.0196 10.0431C30.9242 10.0905 30.8204 10.113 30.7082 10.1105C30.5978 10.1079 30.4831 10.0811 30.3642 10.0303C30.2453 9.97945 30.1254 9.90553 30.0046 9.80851C29.8947 9.72031 29.7973 9.61893 29.7122 9.50435C29.628 9.38875 29.5654 9.26575 29.5245 9.13535C29.4845 9.00575 29.474 8.87333 29.493 8.7381C29.5137 8.60265 29.5732 8.47016 29.6714 8.34065L30.1597 8.73273C30.1083 8.80057 30.0742 8.86575 30.0573 8.92827C30.0412 8.98976 30.0397 9.04892 30.0529 9.10577C30.067 9.16341 30.0949 9.21885 30.1365 9.27208C30.1781 9.3253 30.2303 9.37717 30.2932 9.42769C30.3661 9.48622 30.4328 9.52325 30.4934 9.53877C30.5557 9.55407 30.6118 9.55203 30.6618 9.53267C30.7119 9.51331 30.754 9.48101 30.7883 9.43579Z" fill="white"/>
<path d="M33.656 32.5145L32.428 30.4509L32.8603 29.936L34.284 32.5949L34.0107 32.9204L33.656 32.5145ZM31.5735 31.4689L33.7367 32.4183L34.1834 32.7147L33.9064 33.0447L31.1412 31.9838L31.5735 31.4689ZM32.3725 32.1381L32.0102 31.816L32.953 30.6929L33.3153 31.0151L32.3725 32.1381Z" fill="white"/>
<path d="M30.0209 33.9783C30.0497 34.0163 30.0809 34.0458 30.1145 34.0668C30.1489 34.0888 30.1903 34.101 30.2387 34.1034C30.2872 34.1059 30.3476 34.0987 30.42 34.0818C30.4932 34.066 30.5832 34.0375 30.6901 33.9963C30.8129 33.9506 30.9343 33.9125 31.0544 33.8823C31.1742 33.8538 31.2896 33.8396 31.4005 33.8398C31.5115 33.8399 31.615 33.8609 31.7111 33.9028C31.8061 33.9455 31.8911 34.0162 31.9659 34.1149C32.0384 34.2104 32.0834 34.3132 32.1009 34.4232C32.1184 34.5331 32.1109 34.645 32.0783 34.7588C32.0465 34.8737 31.9916 34.9856 31.9136 35.0946C31.8363 35.2046 31.7378 35.3077 31.618 35.404C31.4583 35.5323 31.2958 35.6158 31.1305 35.6543C30.9651 35.6946 30.8087 35.6896 30.6613 35.6393C30.5147 35.5901 30.3891 35.4966 30.2847 35.3589L30.7699 34.9691C30.8159 35.0297 30.8689 35.0731 30.929 35.0993C30.9888 35.1273 31.0538 35.1346 31.124 35.1212C31.1931 35.1086 31.2647 35.0727 31.3386 35.0133C31.4104 34.9556 31.4623 34.8957 31.4941 34.8338C31.5256 34.7737 31.5395 34.7146 31.5356 34.6566C31.5307 34.5993 31.5111 34.5481 31.4768 34.5028C31.4495 34.4669 31.4156 34.4412 31.375 34.4258C31.3343 34.4123 31.2866 34.4067 31.2322 34.4091C31.1776 34.4133 31.1157 34.425 31.0466 34.4441C30.9776 34.4632 30.9018 34.4894 30.8193 34.5226C30.6737 34.5784 30.5384 34.6193 30.4135 34.6452C30.2875 34.672 30.1714 34.6809 30.0651 34.6721C29.9587 34.6633 29.862 34.6343 29.775 34.5852C29.6869 34.5368 29.6074 34.4659 29.5365 34.3724C29.4609 34.2727 29.4128 34.1691 29.3923 34.0616C29.3708 33.9548 29.3748 33.8457 29.4044 33.7343C29.4338 33.6247 29.4869 33.5168 29.5637 33.4104C29.6405 33.3041 29.7393 33.2023 29.8601 33.1053C29.9699 33.017 30.0892 32.9444 30.2178 32.8873C30.3472 32.8313 30.4784 32.7987 30.6112 32.7896C30.7431 32.7812 30.8704 32.8029 30.9933 32.8547C31.1159 32.9084 31.2263 32.9999 31.3245 33.1294L30.8363 33.5216C30.7848 33.4538 30.7317 33.4039 30.6769 33.3719C30.6228 33.3409 30.5674 33.325 30.5107 33.3243C30.4529 33.3244 30.3939 33.3388 30.3336 33.3673C30.2733 33.3959 30.2118 33.4355 30.1489 33.486C30.076 33.5446 30.0249 33.6022 29.9955 33.6588C29.966 33.7173 29.9542 33.7739 29.9603 33.8285C29.9664 33.8831 29.9866 33.9331 30.0209 33.9783Z" fill="white"/>
<path d="M27.5039 35.6087C27.5253 35.6516 27.5506 35.6866 27.5797 35.7137C27.6095 35.742 27.6479 35.762 27.6951 35.7737C27.7422 35.7854 27.8029 35.79 27.877 35.7874C27.9518 35.7861 28.0454 35.7754 28.158 35.7555C28.2869 35.7343 28.4131 35.7204 28.5365 35.7138C28.6594 35.709 28.7753 35.7173 28.8843 35.7389C28.9933 35.7604 29.0911 35.8011 29.1779 35.8607C29.2634 35.921 29.334 36.0068 29.3895 36.1182C29.4433 36.226 29.4688 36.3357 29.466 36.447C29.4632 36.5584 29.4354 36.6669 29.3827 36.7724C29.3305 36.8791 29.2562 36.9784 29.1597 37.0704C29.0638 37.1636 28.9482 37.2459 28.813 37.3173C28.6327 37.4126 28.4579 37.4632 28.2886 37.4691C28.1187 37.4768 27.966 37.4417 27.8304 37.3639C27.6953 37.2872 27.589 37.1712 27.5115 37.0158L28.0592 36.7265C28.0933 36.7949 28.1375 36.8478 28.1917 36.8851C28.2453 36.9241 28.3078 36.9439 28.3792 36.9442C28.4495 36.9452 28.5263 36.9237 28.6097 36.8797C28.6908 36.8368 28.7526 36.788 28.7951 36.7333C28.837 36.6804 28.8614 36.625 28.8682 36.5672C28.8738 36.51 28.8639 36.4559 28.8385 36.4049C28.8182 36.3643 28.7896 36.3326 28.7525 36.3096C28.7149 36.2885 28.6692 36.2738 28.6153 36.2657C28.5608 36.2593 28.4979 36.2588 28.4266 36.2642C28.3553 36.2697 28.2761 36.2807 28.189 36.2974C28.0358 36.3242 27.8954 36.3382 27.768 36.3396C27.6394 36.3416 27.5237 36.328 27.4209 36.2988C27.3181 36.2696 27.2284 36.2225 27.1518 36.1574C27.0741 36.093 27.0089 36.008 26.9563 35.9024C26.9002 35.7899 26.8718 35.6789 26.8713 35.5693C26.8696 35.4603 26.8934 35.3539 26.9428 35.2502C26.9916 35.1482 27.0634 35.0524 27.1582 34.9627C27.253 34.8731 27.3686 34.7922 27.5049 34.7202C27.6289 34.6547 27.7593 34.6063 27.896 34.5751C28.0334 34.5451 28.1681 34.5383 28.3003 34.555C28.4313 34.5722 28.5524 34.6181 28.6637 34.6927C28.7744 34.769 28.8661 34.8803 28.939 35.0264L28.388 35.3175C28.3498 35.241 28.3067 35.1817 28.2587 35.1396C28.2113 35.0988 28.1597 35.0725 28.1041 35.0609C28.0473 35.0498 27.9867 35.0525 27.9223 35.069C27.8579 35.0854 27.7902 35.1124 27.7192 35.1499C27.637 35.1933 27.5763 35.2401 27.5371 35.29C27.4975 35.3418 27.4756 35.3951 27.4717 35.4499C27.4677 35.5048 27.4784 35.5577 27.5039 35.6087Z" fill="white"/>
<path d="M24.0874 37.6475L24.0544 37.5251C23.998 37.3166 23.9755 37.1214 23.9869 36.9396C23.997 36.7581 24.0375 36.5942 24.1085 36.4481C24.1782 36.3023 24.2747 36.1779 24.3981 36.0749C24.5206 35.9736 24.6666 35.8986 24.8363 35.8501C25.0059 35.8015 25.1692 35.7879 25.3261 35.8093C25.4834 35.832 25.6297 35.8868 25.765 35.9739C25.8991 36.0614 26.0166 36.18 26.1175 36.3297C26.2184 36.4794 26.2971 36.6585 26.3534 36.867L26.3865 36.9895C26.4428 37.198 26.4653 37.3931 26.454 37.575C26.443 37.7581 26.4026 37.9226 26.3329 38.0684C26.2619 38.2145 26.1646 38.3384 26.0409 38.4401C25.9176 38.5431 25.7711 38.6189 25.6014 38.6674C25.4318 38.716 25.2684 38.7289 25.1111 38.7063C24.9541 38.6849 24.8092 38.6303 24.6763 38.5425C24.5423 38.455 24.4246 38.3358 24.3233 38.1848C24.2224 38.0351 24.1438 37.856 24.0874 37.6475ZM24.6566 37.3527L24.6907 37.4789C24.7283 37.6183 24.7738 37.7379 24.8271 37.8377C24.8807 37.9387 24.9405 38.019 25.0065 38.0786C25.0726 38.1382 25.1447 38.1764 25.2229 38.1932C25.3014 38.2114 25.384 38.208 25.4706 38.1832C25.5609 38.1574 25.6345 38.116 25.6915 38.0591C25.7487 38.0035 25.7907 37.9326 25.8174 37.8465C25.8429 37.7607 25.8532 37.6603 25.8484 37.5453C25.8428 37.432 25.8211 37.3056 25.7835 37.1661L25.7493 37.0399C25.712 36.9018 25.6672 36.782 25.6148 36.6806C25.5615 36.5809 25.5017 36.5006 25.4353 36.4397C25.3689 36.3789 25.2971 36.3392 25.2198 36.3208C25.1413 36.3027 25.0569 36.3065 24.9666 36.3324C24.8799 36.3572 24.8081 36.398 24.7512 36.4549C24.693 36.5121 24.6508 36.5844 24.6244 36.6718C24.5981 36.7592 24.5878 36.8596 24.5934 36.973C24.5982 37.088 24.6192 37.2145 24.6566 37.3527Z" fill="white"/>
<path d="M21.4117 37.4797L20.7975 37.5229C20.7947 37.3271 20.8351 37.1511 20.9187 36.995C21.0011 36.8402 21.1216 36.7148 21.2803 36.6187C21.439 36.5239 21.6315 36.4686 21.8577 36.4527C22.0384 36.4399 22.2023 36.4604 22.3493 36.5141C22.4963 36.5678 22.6237 36.6503 22.7313 36.7617C22.8378 36.8744 22.9232 37.0128 22.9874 37.1768C23.0504 37.3422 23.089 37.531 23.1031 37.743L23.1146 37.9166C23.1287 38.1286 23.1141 38.321 23.071 38.4939C23.0279 38.6668 22.9598 38.8166 22.8666 38.9434C22.7735 39.0702 22.6583 39.1704 22.521 39.2441C22.3837 39.3178 22.2278 39.3607 22.0534 39.373C21.8184 39.3895 21.6171 39.3599 21.4496 39.2841C21.282 39.2084 21.149 39.0975 21.0504 38.9516C20.9506 38.8057 20.8854 38.6358 20.8548 38.442L21.4708 38.3987C21.4832 38.5089 21.5096 38.6004 21.55 38.6734C21.5904 38.7476 21.6486 38.8017 21.7245 38.8356C21.8004 38.8694 21.899 38.8821 22.0203 38.8736C22.1087 38.8673 22.1853 38.845 22.2501 38.8064C22.3135 38.768 22.365 38.7115 22.4045 38.6368C22.4427 38.5623 22.4689 38.469 22.483 38.3569C22.4973 38.2461 22.4994 38.1153 22.4893 37.9645L22.4776 37.7869C22.4676 37.6374 22.4496 37.5086 22.4234 37.4007C22.3972 37.2928 22.3608 37.2045 22.3144 37.1359C22.2667 37.0674 22.2082 37.018 22.1388 36.9876C22.0695 36.9571 21.9869 36.9453 21.8908 36.9521C21.7809 36.9598 21.6904 36.9838 21.6195 37.0241C21.5486 37.0656 21.496 37.1242 21.4617 37.1998C21.4273 37.2754 21.4107 37.3687 21.4117 37.4797Z" fill="white"/>
<path d="M19.0176 39.3869L19.2573 36.5505L19.8724 36.6056L19.6328 39.442L19.0176 39.3869Z" fill="white"/>
<path d="M16.5941 38.3951L17.825 36.3334L18.4669 36.4967L16.809 39.0078L16.4033 38.9046L16.5941 38.3951ZM16.5561 36.0107L16.714 38.4256L16.6596 38.9698L16.2483 38.8651L15.9142 35.8474L16.5561 36.0107ZM16.3385 37.0471L16.4534 36.5687L17.8533 36.9248L17.7384 37.4031L16.3385 37.0471Z" fill="white"/>
<path d="M13.1762 37.7562L14.3318 35.1694L14.8928 35.4349L13.7372 38.0217L13.1762 37.7562ZM12.4115 37.3943L12.6123 36.9448L14.6872 37.9267L14.4864 38.3762L12.4115 37.3943Z" fill="white"/>
<path d="M10.7877 36.4579L12.3063 34.0781L12.8224 34.427L11.3038 36.8068L10.7877 36.4579Z" fill="white"/>
<path d="M8.82895 33.0008L8.91251 32.9072C9.05479 32.7479 9.20394 32.6252 9.35998 32.5391C9.51508 32.4521 9.67165 32.401 9.8297 32.3858C9.98681 32.3698 10.1404 32.3885 10.2905 32.4419C10.4388 32.4955 10.5778 32.5835 10.7074 32.7062C10.837 32.8288 10.9345 32.9643 10.9997 33.1128C11.0641 33.2622 11.0961 33.4191 11.0957 33.5833C11.0943 33.7467 11.0585 33.912 10.9882 34.0793C10.918 34.2466 10.8117 34.4099 10.6695 34.5692L10.5859 34.6628C10.4436 34.8221 10.2945 34.9448 10.1384 35.031C9.98154 35.118 9.82454 35.1696 9.66743 35.1856C9.50939 35.2008 9.35574 35.1812 9.2065 35.1268C9.0564 35.0733 8.91654 34.9853 8.78691 34.8627C8.65728 34.74 8.56027 34.604 8.49588 34.4546C8.43063 34.3061 8.39916 34.1506 8.40147 33.9881C8.40284 33.8248 8.43908 33.659 8.51017 33.4907C8.58041 33.3235 8.68667 33.1602 8.82895 33.0008ZM9.37273 33.3426L9.2866 33.439C9.19146 33.5456 9.11679 33.6485 9.06259 33.7477C9.00753 33.8479 8.97286 33.9426 8.95859 34.0318C8.94432 34.121 8.95086 34.2042 8.97823 34.2814C9.00474 34.3596 9.0511 34.43 9.11732 34.4926C9.18633 34.5579 9.25933 34.6004 9.33634 34.6201C9.41248 34.6408 9.49313 34.6401 9.57828 34.6179C9.6625 34.5949 9.75079 34.5509 9.84315 34.486C9.93372 34.4212 10.0266 34.3355 10.1217 34.229L10.2078 34.1325C10.3021 34.027 10.3773 33.9245 10.4333 33.8252C10.4875 33.726 10.5221 33.6313 10.5373 33.5411C10.5524 33.451 10.5472 33.3673 10.5216 33.2899C10.4951 33.2118 10.4473 33.14 10.3783 33.0747C10.3121 33.0121 10.2405 32.9709 10.1635 32.9512C10.0855 32.9306 10.0036 32.9319 9.91756 32.955C9.83155 32.9781 9.74327 33.022 9.65269 33.0869C9.56033 33.1518 9.46701 33.237 9.37273 33.3426Z" fill="white"/>
<path d="M5.64684 31.127L7.87612 29.4413L8.24171 29.9534L7.41963 31.9096L8.8604 30.8201L9.22711 31.3338L6.99783 33.0195L6.63111 32.5058L7.45207 30.5481L6.0113 31.6375L5.64684 31.127Z" fill="white"/>
</svg>
