<svg width="59" height="58" viewBox="0 0 59 58" fill="none" xmlns="http://www.w3.org/2000/svg">
<path d="M5.49219 29.501C5.49219 26.8647 5.92596 24.3298 6.72656 21.9639L6.90918 21.4453L7.84863 21.7881C6.97138 24.1924 6.49219 26.7898 6.49219 29.501C6.49219 32.2121 6.97138 34.8096 7.84863 37.2139L6.90918 37.5557C5.99255 35.0432 5.49219 32.3306 5.49219 29.501ZM51.0742 21.4453C51.9911 23.9581 52.4922 26.6709 52.4922 29.501C52.4922 32.3307 51.9909 35.0432 51.0742 37.5557L50.1357 37.2139C51.013 34.8096 51.4922 32.2121 51.4922 29.501C51.4922 26.7898 51.013 24.1924 50.1357 21.7881L51.0742 21.4453Z" fill="#623CE7"/>
<circle cx="28.9883" cy="29.498" r="18" fill="#623CE7" stroke="#623CE7"/>
<circle cx="29.4883" cy="29" r="28.5" stroke="#623CE7"/>
<path d="M29.0723 31.2363C29.5947 37.7658 31.9451 41.6834 35.6016 44.8174C32.6368 44.8474 30.6388 41.1607 28.8105 41.4219C26.9824 41.6833 25.1537 45.0787 22.542 44.8174C24.1091 43.5115 29.0721 39.0718 29.0723 31.2363ZM28.8105 42.2061C29.5318 42.2061 30.1162 42.7905 30.1162 43.5117C30.1161 44.2329 29.5317 44.8174 28.8105 44.8174C28.0895 44.8172 27.505 44.2328 27.5049 43.5117C27.5049 42.7906 28.0895 42.2062 28.8105 42.2061ZM29.0801 30.46C24.985 33.5459 23.5944 35.926 23.334 41.9512C22.0286 40.1228 23.3341 36.4664 22.0283 34.8994C20.7225 33.3327 19.4164 35.1608 17.3271 35.9443C19.9453 32.4014 22.4224 31.1933 29.0801 30.46ZM29.5879 30.46C36.2458 31.1933 38.7236 32.4013 41.3418 35.9443C39.2524 35.1608 37.9455 33.3324 36.6396 34.8994C35.3338 36.4665 36.6396 40.1229 35.334 41.9512C35.0736 35.9259 33.6831 33.5459 29.5879 30.46ZM20.4609 35.1611C21.1822 35.1611 21.7666 35.7456 21.7666 36.4668C21.7666 37.188 21.1822 37.7725 20.4609 37.7725C19.7398 37.7723 19.1553 37.1879 19.1553 36.4668C19.1553 35.7457 19.7398 35.1613 20.4609 35.1611ZM38.207 35.1611C38.9282 35.1611 39.5127 35.7456 39.5127 36.4668C39.5127 37.188 38.9283 37.7725 38.207 37.7725C37.4859 37.7724 36.9014 37.188 36.9014 36.4668C36.9014 35.7457 37.4859 35.1612 38.207 35.1611ZM15.499 22.8857C16.8053 24.4532 21.2452 29.415 29.0801 29.415C22.5506 29.9374 18.633 32.288 15.499 35.9443C15.4691 32.9796 19.1557 30.9816 18.8945 29.1533C18.6329 27.3253 15.238 25.4972 15.499 22.8857ZM43.1699 22.8857C43.4309 25.4971 40.0361 27.3253 39.7744 29.1533C39.5132 30.9816 43.1998 32.9796 43.1699 35.9443C40.0359 32.2878 36.1176 29.9374 29.5879 29.415C37.4234 29.415 41.864 24.4529 43.1699 22.8857ZM16.8047 27.8477C17.5257 27.8477 18.1101 28.4323 18.1104 29.1533C18.1104 29.8745 17.5259 30.4599 16.8047 30.46C16.0835 30.4599 15.499 29.8745 15.499 29.1533C15.4993 28.4323 16.0836 27.8477 16.8047 27.8477ZM41.8633 27.8477C42.5844 27.8477 43.1697 28.4323 43.1699 29.1533C43.1699 29.8746 42.5845 30.46 41.8633 30.46C41.1423 30.4597 40.5576 29.8744 40.5576 29.1533C40.5579 28.4325 41.1424 27.8479 41.8633 27.8477ZM23.332 16.8779C23.5924 22.9035 24.9829 25.2841 29.0781 28.3701C22.4205 27.6367 19.9433 26.4285 17.3252 22.8857C19.4144 23.6694 20.7205 25.4967 22.0264 23.9297C23.3318 22.3624 22.0262 18.7061 23.332 16.8779ZM35.332 16.8779C36.6378 18.706 35.3325 22.3623 36.6377 23.9297C37.9435 25.4966 39.2497 23.6694 41.3389 22.8857C38.7208 26.4284 36.2436 27.6368 29.5859 28.3701C33.6812 25.2841 35.0717 22.9036 35.332 16.8779ZM22.542 14.0127C25.1537 13.7514 26.9824 17.1468 28.8105 17.4082C30.6388 17.6694 32.6368 13.9827 35.6016 14.0127C31.9451 17.1466 29.5946 21.0642 29.0723 27.5938C29.0722 19.7582 24.1091 15.3185 22.542 14.0127ZM20.459 21.0566C21.1802 21.0566 21.7646 21.6421 21.7646 22.3633C21.7645 23.0844 21.1801 23.6689 20.459 23.6689C19.7379 23.6689 19.1535 23.0843 19.1533 22.3633C19.1533 21.6421 19.7378 21.0567 20.459 21.0566ZM38.2051 21.0566C38.9263 21.0566 39.5107 21.6421 39.5107 22.3633C39.5106 23.0844 38.9262 23.6689 38.2051 23.6689C37.484 23.6689 36.8996 23.0844 36.8994 22.3633C36.8994 21.6421 37.4839 21.0567 38.2051 21.0566ZM28.8105 14.0127C29.5318 14.0127 30.1162 14.5972 30.1162 15.3184C30.1162 16.0396 29.5318 16.624 28.8105 16.624C28.0895 16.6239 27.5049 16.0395 27.5049 15.3184C27.5049 14.5972 28.0895 14.0128 28.8105 14.0127Z" fill="white"/>
<path d="M29.0723 31.2363C29.5947 37.7658 31.9451 41.6834 35.6016 44.8174C32.6368 44.8474 30.6388 41.1607 28.8105 41.4219C26.9824 41.6833 25.1537 45.0787 22.542 44.8174C24.1091 43.5115 29.0721 39.0718 29.0723 31.2363ZM28.8105 42.2061C29.5318 42.2061 30.1162 42.7905 30.1162 43.5117C30.1161 44.2329 29.5317 44.8174 28.8105 44.8174C28.0895 44.8172 27.505 44.2328 27.5049 43.5117C27.5049 42.7906 28.0895 42.2062 28.8105 42.2061ZM29.0801 30.46C24.985 33.5459 23.5944 35.926 23.334 41.9512C22.0286 40.1228 23.3341 36.4664 22.0283 34.8994C20.7225 33.3327 19.4164 35.1608 17.3271 35.9443C19.9453 32.4014 22.4224 31.1933 29.0801 30.46ZM29.5879 30.46C36.2458 31.1933 38.7236 32.4013 41.3418 35.9443C39.2524 35.1608 37.9455 33.3324 36.6396 34.8994C35.3338 36.4665 36.6396 40.1229 35.334 41.9512C35.0736 35.9259 33.6831 33.5459 29.5879 30.46ZM20.4609 35.1611C21.1822 35.1611 21.7666 35.7456 21.7666 36.4668C21.7666 37.188 21.1822 37.7725 20.4609 37.7725C19.7398 37.7723 19.1553 37.1879 19.1553 36.4668C19.1553 35.7457 19.7398 35.1613 20.4609 35.1611ZM38.207 35.1611C38.9282 35.1611 39.5127 35.7456 39.5127 36.4668C39.5127 37.188 38.9283 37.7725 38.207 37.7725C37.4859 37.7724 36.9014 37.188 36.9014 36.4668C36.9014 35.7457 37.4859 35.1612 38.207 35.1611ZM15.499 22.8857C16.8053 24.4532 21.2452 29.415 29.0801 29.415C22.5506 29.9374 18.633 32.288 15.499 35.9443C15.4691 32.9796 19.1557 30.9816 18.8945 29.1533C18.6329 27.3253 15.238 25.4972 15.499 22.8857ZM43.1699 22.8857C43.4309 25.4971 40.0361 27.3253 39.7744 29.1533C39.5132 30.9816 43.1998 32.9796 43.1699 35.9443C40.0359 32.2878 36.1176 29.9374 29.5879 29.415C37.4234 29.415 41.864 24.4529 43.1699 22.8857ZM16.8047 27.8477C17.5257 27.8477 18.1101 28.4323 18.1104 29.1533C18.1104 29.8745 17.5259 30.4599 16.8047 30.46C16.0835 30.4599 15.499 29.8745 15.499 29.1533C15.4993 28.4323 16.0836 27.8477 16.8047 27.8477ZM41.8633 27.8477C42.5844 27.8477 43.1697 28.4323 43.1699 29.1533C43.1699 29.8746 42.5845 30.46 41.8633 30.46C41.1423 30.4597 40.5576 29.8744 40.5576 29.1533C40.5579 28.4325 41.1424 27.8479 41.8633 27.8477ZM23.332 16.8779C23.5924 22.9035 24.9829 25.2841 29.0781 28.3701C22.4205 27.6367 19.9433 26.4285 17.3252 22.8857C19.4144 23.6694 20.7205 25.4967 22.0264 23.9297C23.3318 22.3624 22.0262 18.7061 23.332 16.8779ZM35.332 16.8779C36.6378 18.706 35.3325 22.3623 36.6377 23.9297C37.9435 25.4966 39.2497 23.6694 41.3389 22.8857C38.7208 26.4284 36.2436 27.6368 29.5859 28.3701C33.6812 25.2841 35.0717 22.9036 35.332 16.8779ZM22.542 14.0127C25.1537 13.7514 26.9824 17.1468 28.8105 17.4082C30.6388 17.6694 32.6368 13.9827 35.6016 14.0127C31.9451 17.1466 29.5946 21.0642 29.0723 27.5938C29.0722 19.7582 24.1091 15.3185 22.542 14.0127ZM20.459 21.0566C21.1802 21.0566 21.7646 21.6421 21.7646 22.3633C21.7645 23.0844 21.1801 23.6689 20.459 23.6689C19.7379 23.6689 19.1535 23.0843 19.1533 22.3633C19.1533 21.6421 19.7378 21.0567 20.459 21.0566ZM38.2051 21.0566C38.9263 21.0566 39.5107 21.6421 39.5107 22.3633C39.5106 23.0844 38.9262 23.6689 38.2051 23.6689C37.484 23.6689 36.8996 23.0844 36.8994 22.3633C36.8994 21.6421 37.4839 21.0567 38.2051 21.0566ZM28.8105 14.0127C29.5318 14.0127 30.1162 14.5972 30.1162 15.3184C30.1162 16.0396 29.5318 16.624 28.8105 16.624C28.0895 16.6239 27.5049 16.0395 27.5049 15.3184C27.5049 14.5972 28.0895 14.0128 28.8105 14.0127Z" stroke="#623CE7"/>
<path d="M45.3104 13.8004C45.3591 13.747 45.3945 13.6921 45.4168 13.6358C45.4404 13.578 45.4477 13.512 45.4387 13.4377C45.4297 13.3635 45.4034 13.2735 45.3597 13.1676C45.3174 13.0604 45.2519 12.9307 45.1632 12.7786C45.0638 12.6035 44.9762 12.4286 44.9003 12.2537C44.8272 12.0788 44.7763 11.907 44.7477 11.7382C44.7191 11.5695 44.7233 11.4069 44.7602 11.2503C44.7986 11.0951 44.881 10.9481 45.0072 10.8095C45.1295 10.6752 45.2696 10.5809 45.4275 10.5266C45.5853 10.4722 45.7525 10.4554 45.9291 10.4762C46.1069 10.4956 46.2865 10.5508 46.4677 10.6419C46.6502 10.7316 46.8281 10.8553 47.0014 11.0132C47.2324 11.2236 47.3978 11.4496 47.4975 11.691C47.6 11.9323 47.6333 12.1714 47.5973 12.4081C47.5626 12.6433 47.4572 12.8577 47.2809 13.0512L46.5792 12.412C46.6568 12.3268 46.7071 12.2352 46.7302 12.1374C46.7561 12.0394 46.75 11.9388 46.712 11.8355C46.6755 11.7335 46.6038 11.6338 46.4969 11.5365C46.393 11.4418 46.2912 11.3781 46.1915 11.3454C46.0945 11.3126 46.0037 11.3064 45.9189 11.327C45.8356 11.3488 45.765 11.3915 45.7071 11.4551C45.6611 11.5056 45.632 11.5636 45.6199 11.6292C45.6105 11.6946 45.6146 11.7684 45.6322 11.8505C45.6527 11.9325 45.6859 12.0236 45.7321 12.1237C45.7782 12.2239 45.8365 12.3325 45.9069 12.4495C46.0272 12.6568 46.1227 12.8521 46.1935 13.0355C46.2657 13.2201 46.309 13.3944 46.3236 13.5583C46.3381 13.7221 46.3204 13.8764 46.2705 14.0211C46.222 14.1672 46.1379 14.3059 46.0182 14.4373C45.8906 14.5773 45.7501 14.6765 45.5966 14.7348C45.4445 14.7944 45.2823 14.8158 45.1101 14.799C44.9407 14.782 44.7674 14.7285 44.5904 14.6386C44.4134 14.5487 44.2375 14.4241 44.0628 14.265C43.904 14.1203 43.7658 13.9574 43.6481 13.7762C43.5318 13.5936 43.4496 13.4025 43.4016 13.2029C43.355 13.0046 43.354 12.8055 43.3986 12.6057C43.446 12.4058 43.5526 12.2149 43.7183 12.033L44.4243 12.6762C44.3375 12.7715 44.2776 12.8648 44.2445 12.9562C44.2128 13.0462 44.2037 13.1344 44.2174 13.2209C44.2326 13.3086 44.2691 13.3947 44.3269 13.4791C44.3848 13.5635 44.4592 13.6472 44.5502 13.73C44.6556 13.8261 44.7539 13.8892 44.8452 13.9195C44.9392 13.9497 45.0258 13.9533 45.1049 13.9303C45.184 13.9072 45.2525 13.8639 45.3104 13.8004Z" fill="#C31F82"/>
<path d="M44.3147 8.60497L44.0519 8.986C43.9787 9.09211 43.8824 9.18701 43.7629 9.27072C43.6462 9.35393 43.5205 9.42263 43.3858 9.47684C43.2523 9.52944 43.1223 9.56314 42.9958 9.57793L42.7872 9.15285C42.9089 9.09681 43.0289 9.02775 43.1472 8.94565C43.2666 8.86194 43.3785 8.74453 43.4827 8.5934L43.7456 8.21237L44.3147 8.60497Z" fill="#C31F82"/>
<path d="M40.7048 6.91623L38.8748 10.7694L38.0147 10.3609L39.8448 6.50774L40.7048 6.91623ZM41.8772 7.47304L41.5592 8.14257L38.3783 6.63178L38.6962 5.96225L41.8772 7.47304Z" fill="#C31F82"/>
<path d="M36.848 5.46479L35.9061 9.62513L34.9775 9.41488L34.0147 6.3703L33.4059 9.05908L32.4744 8.84819L33.4163 4.68786L34.3478 4.89875L35.3135 7.94398L35.9222 5.2552L36.848 5.46479Z" fill="#C31F82"/>
<path d="M31.3931 8.06384L31.3798 8.802L29.1097 8.76108L29.123 8.02292L31.3931 8.06384ZM29.5117 4.50201L29.4348 8.76694L28.4799 8.74973L28.5568 4.4848L29.5117 4.50201ZM31.1328 6.2483L31.12 6.96303L29.1427 6.92739L29.1556 6.21267L31.1328 6.2483ZM31.4596 4.53712L31.4463 5.27821L29.1732 5.23724L29.1866 4.49615L31.4596 4.53712Z" fill="#C31F82"/>
<path d="M25.3533 9.30362L24.4317 9.47535L24.3022 8.74848L25.2181 8.57783C25.4274 8.53884 25.5951 8.45792 25.7212 8.33509C25.8469 8.21033 25.9296 8.04593 25.969 7.84189C26.0081 7.63593 26.0021 7.39567 25.9509 7.12109L25.915 6.92813C25.8763 6.72076 25.8212 6.54229 25.7497 6.39271C25.6777 6.24121 25.5905 6.11939 25.4879 6.02725C25.3853 5.93511 25.2675 5.87361 25.1346 5.84274C25.0036 5.81152 24.8594 5.81058 24.702 5.83991L23.7688 6.01378L23.633 5.28511L24.5662 5.11124C24.8504 5.05829 25.1185 5.058 25.3707 5.11036C25.6247 5.16236 25.8538 5.26172 26.058 5.40845C26.2641 5.55482 26.4369 5.74116 26.5764 5.96748C26.7159 6.1938 26.8136 6.45673 26.8694 6.75626L26.9043 6.94347C26.9597 7.24108 26.9633 7.52154 26.915 7.78484C26.8664 8.04622 26.7723 8.28229 26.6327 8.49306C26.4947 8.70154 26.3176 8.87561 26.1012 9.01526C25.8849 9.15491 25.6356 9.25103 25.3533 9.30362ZM24.1831 5.18261L24.9645 9.37607L24.0256 9.55101L23.2442 5.35756L24.1831 5.18261Z" fill="#C31F82"/>
<path d="M20.294 6.46236L21.1748 6.0931L22.2576 8.67609C22.386 8.9823 22.4291 9.26707 22.387 9.53038C22.3467 9.79294 22.2345 10.0253 22.0503 10.2275C21.8661 10.4297 21.6236 10.5938 21.3228 10.7199C21.0201 10.8468 20.7313 10.9054 20.4562 10.8958C20.1829 10.8854 19.9367 10.8033 19.7176 10.6495C19.5003 10.4949 19.3275 10.2645 19.1991 9.95829L18.1163 7.3753L18.9998 7.00491L20.0826 9.5879C20.1536 9.75722 20.237 9.88534 20.3327 9.97227C20.4295 10.0566 20.5371 10.1037 20.6555 10.1133C20.7731 10.1212 20.9004 10.0964 21.0373 10.039C21.1742 9.98164 21.2802 9.90861 21.3553 9.81996C21.4314 9.72875 21.4715 9.61981 21.4756 9.49315C21.4807 9.36393 21.4478 9.21466 21.3768 9.04535L20.294 6.46236Z" fill="#C31F82"/>
<path d="M15.3802 9.14892L17.8274 12.6427L17.0476 13.189L14.6004 9.69517L15.3802 9.14892ZM16.4432 8.40433L16.8685 9.01143L13.9842 11.0317L13.5589 10.4246L16.4432 8.40433Z" fill="#C31F82"/>
<path d="M13.9022 14.5593C13.8493 14.5101 13.7949 14.474 13.7388 14.4511C13.6813 14.4268 13.6154 14.4188 13.541 14.4269C13.4667 14.4351 13.3764 14.4603 13.2701 14.5028C13.1623 14.5439 13.0319 14.6079 12.8788 14.6948C12.7026 14.7922 12.5266 14.8778 12.351 14.9517C12.1752 15.0228 12.0028 15.0717 11.8338 15.0984C11.6647 15.1251 11.5021 15.119 11.346 15.0803C11.1912 15.0401 11.0452 14.9561 10.9081 14.8283C10.7752 14.7044 10.6825 14.5633 10.6299 14.4048C10.5774 14.2463 10.5625 14.079 10.5853 13.9027C10.6067 13.725 10.664 13.5461 10.7572 13.366C10.8489 13.1845 10.9747 13.008 11.1345 12.8366C11.3476 12.608 11.5754 12.4452 11.818 12.3482C12.0605 12.2485 12.2999 12.218 12.5361 12.2567C12.771 12.294 12.9842 12.4019 13.1756 12.5804L12.5284 13.2747C12.4441 13.1962 12.3531 13.1448 12.2556 13.1206C12.1579 13.0936 12.0572 13.0985 11.9534 13.1353C11.851 13.1707 11.7506 13.2413 11.652 13.347C11.5561 13.4498 11.4913 13.5509 11.4574 13.6502C11.4235 13.7468 11.4164 13.8375 11.4359 13.9225C11.4568 14.0061 11.4987 14.0772 11.5616 14.1358C11.6116 14.1824 11.6693 14.2121 11.7347 14.225C11.8 14.2352 11.8738 14.2319 11.9561 14.2152C12.0384 14.1957 12.1298 14.1635 12.2305 14.1185C12.3312 14.0735 12.4404 14.0165 12.5582 13.9474C12.7669 13.8295 12.9633 13.7362 13.1475 13.6676C13.3329 13.5975 13.5077 13.5561 13.6717 13.5434C13.8357 13.5308 13.9898 13.5502 14.1339 13.6018C14.2794 13.652 14.4171 13.7377 14.5471 13.8589C14.6857 13.988 14.7833 14.1297 14.8398 14.2839C14.8977 14.4366 14.9172 14.599 14.8984 14.771C14.8795 14.9403 14.824 15.1129 14.7321 15.2889C14.6402 15.4648 14.5136 15.6393 14.3525 15.8121C14.206 15.9693 14.0415 16.1057 13.859 16.2212C13.6751 16.3355 13.483 16.4155 13.2829 16.4612C13.0841 16.5055 12.885 16.5042 12.6858 16.4573C12.4864 16.4076 12.2967 16.2989 12.1167 16.1311L12.7679 15.4325C12.8622 15.5204 12.9549 15.5814 13.0459 15.6155C13.1355 15.6483 13.2236 15.6583 13.3102 15.6456C13.3982 15.6315 13.4847 15.5959 13.5697 15.5391C13.6548 15.4822 13.7393 15.4087 13.8232 15.3187C13.9204 15.2144 13.9847 15.1168 14.016 15.0259C14.0473 14.9322 14.0518 14.8457 14.0297 14.7663C14.0076 14.6869 13.9651 14.6179 13.9022 14.5593Z" fill="#C31F82"/>
<path d="M7.83951 42.1856L11.3495 39.7616L11.8905 40.545L10.5377 43.4375L12.8062 41.8709L13.3489 42.6568L9.83898 45.0808L9.29624 44.2949L10.6474 41.4L8.37892 42.9666L7.83951 42.1856Z" fill="#C31F82"/>
<path d="M12.6658 45.1286L12.7979 44.9915C13.0229 44.758 13.2572 44.5796 13.5007 44.4563C13.7429 44.3316 13.9861 44.2608 14.2303 44.2438C14.473 44.2255 14.7092 44.2591 14.9387 44.3446C15.1654 44.4302 15.3765 44.5672 15.572 44.7556C15.7675 44.9439 15.913 45.1505 16.0083 45.3753C16.1023 45.6015 16.146 45.8375 16.1395 46.0835C16.1317 46.3282 16.0706 46.5745 15.9564 46.8225C15.8422 47.0705 15.6727 47.3112 15.4477 47.5447L15.3156 47.6818C15.0906 47.9153 14.8563 48.0937 14.6127 48.217C14.3678 48.3417 14.1239 48.4132 13.8812 48.4315C13.637 48.4485 13.4008 48.4135 13.1727 48.3266C12.9432 48.2411 12.7307 48.1041 12.5352 47.9157C12.3397 47.7274 12.195 47.5201 12.101 47.2939C12.0056 47.0692 11.9626 46.8351 11.9719 46.5918C11.9798 46.3472 12.0415 46.1002 12.1571 45.8508C12.2713 45.6028 12.4408 45.3621 12.6658 45.1286ZM13.492 45.6603L13.3558 45.8016C13.2054 45.9577 13.0866 46.1091 12.9996 46.2558C12.9112 46.4038 12.8544 46.5444 12.8292 46.6775C12.8041 46.8105 12.8112 46.9354 12.8507 47.0521C12.8888 47.1702 12.9578 47.2773 13.0576 47.3735C13.1617 47.4738 13.2727 47.5401 13.3908 47.5725C13.5074 47.6062 13.6318 47.6081 13.7638 47.578C13.8944 47.5466 14.0321 47.4839 14.1768 47.3901C14.3187 47.2963 14.4649 47.1713 14.6153 47.0152L14.7515 46.8738C14.9006 46.7191 15.02 46.5684 15.1098 46.4217C15.1969 46.2751 15.2537 46.1345 15.2802 46C15.3067 45.8655 15.3016 45.7399 15.2649 45.6232C15.2268 45.5051 15.1557 45.3959 15.0516 45.2957C14.9518 45.1994 14.8428 45.1352 14.7248 45.1028C14.6054 45.0691 14.479 45.068 14.3456 45.0995C14.2122 45.131 14.0745 45.1936 13.9326 45.2874C13.788 45.3813 13.6411 45.5055 13.492 45.6603Z" fill="#C31F82"/>
<path d="M15.6144 50.3776L17.9678 46.8199L18.7619 47.3452L16.4085 50.9029L15.6144 50.3776Z" fill="#C31F82"/>
<path d="M19.3261 52.3179L21.0758 48.4277L21.9442 48.8182L20.1945 52.7085L19.3261 52.3179ZM18.1425 51.7855L18.4465 51.1096L21.6581 52.554L21.3541 53.23L18.1425 51.7855Z" fill="#C31F82"/>
<path d="M24.6337 53.1939L26.4559 50.0596L27.4513 50.2799L24.9875 54.1034L24.3582 53.964L24.6337 53.1939ZM24.4879 49.6239L24.8197 53.235L24.7558 54.0521L24.1179 53.9108L23.4925 49.4035L24.4879 49.6239ZM24.1905 51.1843L24.3501 50.4635L26.5211 50.9442L26.3615 51.665L24.1905 51.1843Z" fill="#C31F82"/>
<path d="M28.4203 54.5772L28.6517 50.3179L29.6025 50.3695L29.3711 54.6289L28.4203 54.5772Z" fill="#C31F82"/>
<path d="M32.0029 51.568L31.0602 51.6783C31.0416 51.3855 31.0911 51.1192 31.2085 50.8793C31.3243 50.6416 31.5008 50.4449 31.7383 50.2893C31.9759 50.1356 32.2684 50.0385 32.6156 49.9979C32.893 49.9654 33.1469 49.9839 33.3772 50.0533C33.6075 50.1227 33.8097 50.2367 33.9836 50.3953C34.1558 50.556 34.2972 50.7568 34.408 50.9975C34.5171 51.2403 34.5901 51.5199 34.6271 51.8361L34.6574 52.0951C34.6944 52.4113 34.6859 52.7003 34.632 52.9623C34.5781 53.2242 34.484 53.4535 34.3497 53.6501C34.2154 53.8468 34.0452 54.0053 33.8391 54.1258C33.6329 54.2463 33.396 54.3222 33.1283 54.3535C32.7675 54.3958 32.4553 54.3664 32.1918 54.2655C31.9283 54.1646 31.7153 54.0086 31.553 53.7975C31.3887 53.5867 31.2759 53.3373 31.2147 53.0495L32.1604 52.9389C32.1875 53.1028 32.2347 53.2379 32.3022 53.3441C32.3699 53.4522 32.4635 53.5287 32.5828 53.5738C32.7021 53.6188 32.8549 53.6304 33.0411 53.6086C33.1769 53.5927 33.2933 53.5535 33.3902 53.4911C33.4851 53.4288 33.5603 53.3404 33.6157 53.2258C33.6692 53.1113 33.7028 52.9698 33.7165 52.801C33.7304 52.6342 33.7242 52.4383 33.6978 52.2133L33.6668 51.9485C33.6407 51.7254 33.6036 51.5341 33.5554 51.3745C33.5073 51.215 33.4449 51.0856 33.3684 50.9864C33.29 50.8874 33.1963 50.8178 33.0873 50.7774C32.9784 50.7371 32.8502 50.7255 32.7028 50.7428C32.534 50.7625 32.3964 50.8052 32.2901 50.8707C32.1839 50.9382 32.1071 51.0298 32.0597 51.1454C32.0123 51.2611 31.9933 51.402 32.0029 51.568Z" fill="#C31F82"/>
<path d="M36.1289 51.5912L36.0649 51.4118C35.956 51.1065 35.9005 50.8173 35.8985 50.5443C35.8946 50.2719 35.9394 50.0226 36.0329 49.7964C36.1245 49.5709 36.2597 49.3744 36.4384 49.2069C36.616 49.0419 36.8326 48.9138 37.0883 48.8226C37.344 48.7314 37.5937 48.6931 37.8374 48.7077C38.0818 48.7242 38.3126 48.7901 38.53 48.9054C38.7456 49.0213 38.939 49.1856 39.1103 49.3982C39.2815 49.6109 39.4217 49.8698 39.5306 50.1752L39.5946 50.3546C39.7036 50.6599 39.7591 50.9491 39.7611 51.2221C39.7638 51.497 39.7193 51.7472 39.6277 51.9727C39.5342 52.1989 39.3977 52.3949 39.2184 52.5605C39.0396 52.7279 38.8224 52.8573 38.5667 52.9485C38.311 53.0398 38.061 53.0771 37.8166 53.0606C37.5729 53.046 37.3442 52.9804 37.1305 52.8638C36.9149 52.7478 36.7212 52.5826 36.5493 52.3682C36.378 52.1555 36.2379 51.8966 36.1289 51.5912ZM36.9728 51.0879L37.0387 51.2728C37.1116 51.477 37.1943 51.6507 37.2869 51.7939C37.3801 51.939 37.4807 52.0524 37.5887 52.1341C37.6967 52.2159 37.8117 52.2651 37.9337 52.2817C38.0564 52.3001 38.1831 52.286 38.3137 52.2394C38.4498 52.1908 38.5586 52.1209 38.6401 52.0296C38.7222 51.9402 38.7792 51.8296 38.8111 51.698C38.8411 51.567 38.8462 51.4158 38.8266 51.2445C38.8057 51.0757 38.7589 50.8892 38.686 50.685L38.62 50.5001C38.5478 50.2978 38.466 50.1237 38.3746 49.978C38.2821 49.8348 38.1815 49.7214 38.0728 49.6378C37.9642 49.5542 37.8494 49.5028 37.7286 49.4838C37.6059 49.4653 37.4765 49.4804 37.3403 49.529C37.2097 49.5756 37.1037 49.6445 37.0222 49.7358C36.9389 49.8278 36.8816 49.9405 36.8505 50.0739C36.8193 50.2074 36.8141 50.3586 36.835 50.5274C36.8546 50.6987 36.9005 50.8856 36.9728 51.0879Z" fill="#C31F82"/>
<path d="M41.1382 48.1548C41.1764 48.2161 41.2196 48.2652 41.2677 48.3019C41.3169 48.3403 41.3785 48.3653 41.4524 48.3768C41.5262 48.3884 41.62 48.3875 41.7337 48.3743C41.8484 48.3627 41.991 48.335 42.1615 48.291C42.3571 48.243 42.5493 48.2062 42.7381 48.1807C42.9264 48.1579 43.1055 48.1557 43.2757 48.1741C43.4458 48.1924 43.6012 48.2407 43.7418 48.3188C43.8808 48.398 43.9998 48.5172 44.0988 48.6764C44.1948 48.8306 44.2475 48.9911 44.2569 49.1577C44.2662 49.3244 44.2369 49.4899 44.1689 49.6541C44.1019 49.82 43.9999 49.9778 43.8629 50.1274C43.727 50.2787 43.5596 50.4162 43.3606 50.54C43.0952 50.7051 42.8328 50.8028 42.5733 50.8331C42.3132 50.8661 42.0742 50.8331 41.8562 50.7341C41.6392 50.6368 41.4616 50.477 41.3233 50.2548L42.1293 49.7533C42.1902 49.8512 42.2646 49.9245 42.3524 49.9734C42.4397 50.0249 42.5382 50.0464 42.648 50.0379C42.756 50.0305 42.8714 49.9886 42.9942 49.9123C43.1136 49.838 43.2026 49.7573 43.2611 49.6703C43.319 49.5859 43.3497 49.5002 43.3529 49.413C43.3546 49.3269 43.3327 49.2473 43.2873 49.1744C43.2512 49.1163 43.2032 49.0726 43.1435 49.043C43.0831 49.0162 43.011 49.0001 42.9271 48.9948C42.8427 48.9921 42.746 48.9994 42.637 49.0165C42.5281 49.0337 42.4077 49.0603 42.276 49.0962C42.0438 49.1556 41.8299 49.1944 41.6342 49.2126C41.4368 49.2318 41.2573 49.2262 41.0957 49.1956C40.9341 49.1651 40.7904 49.1061 40.6647 49.0187C40.5374 48.9323 40.4268 48.8136 40.3329 48.6627C40.2328 48.5019 40.1756 48.3396 40.1612 48.176C40.1452 48.0135 40.1687 47.8516 40.2318 47.6905C40.2942 47.532 40.3928 47.3799 40.5274 47.234C40.6621 47.0881 40.8298 46.9527 41.0304 46.8279C41.2128 46.7144 41.4072 46.6257 41.6135 46.5617C41.8209 46.4994 42.0272 46.4723 42.2323 46.4804C42.4358 46.4895 42.6276 46.5427 42.8078 46.6399C42.9872 46.7399 43.142 46.8944 43.272 47.1033L42.461 47.6078C42.393 47.4984 42.3194 47.4153 42.2405 47.3586C42.1625 47.3036 42.0801 47.2709 41.9931 47.2606C41.9046 47.2513 41.8118 47.263 41.7148 47.2957C41.6179 47.3285 41.5172 47.3773 41.4127 47.4423C41.2916 47.5176 41.2041 47.5951 41.1501 47.6747C41.0955 47.757 41.0685 47.8393 41.0692 47.9217C41.0698 48.0041 41.0928 48.0818 41.1382 48.1548Z" fill="#C31F82"/>
<path d="M44.7656 45.3871C44.8154 45.4394 44.8677 45.4786 44.9224 45.5048C44.9783 45.5323 45.0437 45.5442 45.1184 45.5405C45.1931 45.5367 45.2847 45.5167 45.3933 45.4806C45.5033 45.4459 45.6372 45.3896 45.7951 45.3118C45.9768 45.2249 46.1574 45.1497 46.3371 45.0863C46.5168 45.0256 46.6917 44.9868 46.862 44.9701C47.0323 44.9534 47.1943 44.9689 47.3479 45.0168C47.5001 45.0659 47.6409 45.1583 47.7703 45.294C47.8957 45.4254 47.98 45.5718 48.0232 45.733C48.0664 45.8943 48.0714 46.0622 48.0383 46.2369C48.0065 46.413 47.9389 46.5882 47.8353 46.7626C47.7331 46.9384 47.5972 47.1072 47.4276 47.269C47.2015 47.4847 46.9645 47.6339 46.7167 47.7165C46.4688 47.8018 46.2281 47.8183 45.9944 47.7658C45.7622 47.7148 45.5557 47.5946 45.375 47.4052L46.0618 46.75C46.1414 46.8333 46.2291 46.89 46.3251 46.9199C46.4211 46.9525 46.5219 46.9535 46.6276 46.9228C46.7319 46.8935 46.8363 46.8289 46.9409 46.7292C47.0426 46.6321 47.1133 46.535 47.1529 46.4378C47.1924 46.3434 47.2049 46.2533 47.1903 46.1673C47.1744 46.0826 47.1367 46.0092 47.0774 45.947C47.0302 45.8976 46.9743 45.8645 46.9098 45.8478C46.8452 45.8338 46.7713 45.8328 46.6882 45.8446C46.6049 45.8593 46.5117 45.8861 46.4086 45.9251C46.3054 45.9641 46.1931 46.0147 46.0714 46.0767C45.8562 46.1822 45.6547 46.2638 45.4668 46.3216C45.2775 46.3807 45.1007 46.4117 44.9362 46.4148C44.7717 46.4178 44.6191 46.3894 44.4782 46.3294C44.3359 46.2708 44.2034 46.1772 44.0807 46.0486C43.9499 45.9116 43.8608 45.7644 43.8134 45.6072C43.7646 45.4513 43.7546 45.2881 43.7835 45.1175C43.8123 44.9496 43.8777 44.7805 43.9798 44.6102C44.0819 44.44 44.2184 44.2733 44.3894 44.1101C44.5449 43.9618 44.7171 43.8353 44.906 43.7306C45.0963 43.6273 45.2927 43.5587 45.4952 43.5248C45.6963 43.4922 45.8949 43.5052 46.0911 43.5637C46.2872 43.6249 46.4702 43.7446 46.6401 43.9226L45.949 44.5819C45.8601 44.4886 45.7711 44.4223 45.6823 44.3829C45.5947 44.345 45.5074 44.3298 45.4202 44.3374C45.3315 44.3464 45.2431 44.3768 45.1549 44.4286C45.0666 44.4804 44.978 44.5487 44.8889 44.6337C44.7858 44.7321 44.7159 44.8258 44.6793 44.9147C44.6426 45.0064 44.633 45.0925 44.6504 45.1731C44.6679 45.2536 44.7062 45.3249 44.7656 45.3871Z" fill="#C31F82"/>
<path d="M50.0955 42.6028L47.855 39.7525L48.4273 38.9087L51.0714 42.6097L50.7096 43.1431L50.0955 42.6028ZM46.7238 41.4207L50.2024 42.4452L50.9382 42.8061L50.5715 43.3468L46.1515 42.2645L46.7238 41.4207ZM48.0643 42.2731L47.4532 41.8587L48.7013 40.0184L49.3123 40.4327L48.0643 42.2731Z" fill="#C31F82"/>
</svg>
