<svg width="214" height="43" viewBox="0 0 214 43" fill="none" xmlns="http://www.w3.org/2000/svg">
<path d="M209.889 31.0937C209.841 30.5753 209.632 30.1723 209.259 29.8848C208.892 29.5926 208.366 29.4465 207.683 29.4465C207.23 29.4465 206.853 29.5054 206.552 29.6232C206.25 29.7411 206.024 29.9037 205.873 30.111C205.722 30.3137 205.645 30.547 205.64 30.8109C205.63 31.0277 205.673 31.2186 205.767 31.3835C205.866 31.5485 206.007 31.6946 206.191 31.8218C206.38 31.9444 206.606 32.0528 206.87 32.147C207.134 32.2413 207.431 32.3238 207.761 32.3945L209.005 32.6773C209.721 32.8328 210.353 33.0402 210.9 33.2994C211.451 33.5586 211.913 33.8673 212.285 34.2255C212.662 34.5837 212.947 34.996 213.141 35.4626C213.334 35.9292 213.433 36.4524 213.438 37.0321C213.433 37.9464 213.202 38.7311 212.745 39.3862C212.288 40.0413 211.63 40.5432 210.772 40.892C209.919 41.2407 208.889 41.4151 207.683 41.4151C206.472 41.4151 205.416 41.2337 204.516 40.8708C203.616 40.5079 202.916 39.9565 202.416 39.2165C201.917 38.4766 201.66 37.5411 201.646 36.4099H204.997C205.025 36.8765 205.15 37.2653 205.371 37.5764C205.593 37.8875 205.897 38.1231 206.283 38.2834C206.674 38.4436 207.127 38.5237 207.641 38.5237C208.112 38.5237 208.512 38.4601 208.842 38.3328C209.177 38.2056 209.434 38.0289 209.613 37.8026C209.792 37.5764 209.884 37.3172 209.889 37.025C209.884 36.7516 209.799 36.5183 209.634 36.3251C209.469 36.1272 209.215 35.9575 208.871 35.8161C208.531 35.67 208.098 35.5357 207.57 35.4131L206.057 35.0597C204.803 34.7722 203.816 34.3079 203.095 33.667C202.374 33.0213 202.016 32.1494 202.02 31.0513C202.016 30.1558 202.256 29.3711 202.741 28.6971C203.227 28.0232 203.898 27.4977 204.756 27.1206C205.614 26.7436 206.592 26.5551 207.69 26.5551C208.812 26.5551 209.785 26.746 210.61 27.1277C211.439 27.5047 212.083 28.035 212.54 28.7183C212.997 29.4017 213.23 30.1935 213.24 31.0937H209.889Z" fill="white"/>
<path d="M187.917 29.5955V26.7535H200.154V29.5955H195.764V41.2318H192.314V29.5955H187.917Z" fill="white"/>
<path d="M185.992 26.7535V41.2318H183.023L177.261 32.8757H177.169V41.2318H173.67V26.7535H176.682L182.38 35.0955H182.5V26.7535H185.992Z" fill="white"/>
<path d="M161.243 41.2318H157.482L162.367 26.7535H167.026L171.911 41.2318H168.15L164.749 30.4014H164.636L161.243 41.2318ZM160.741 35.5338H168.602V38.192H160.741V35.5338Z" fill="white"/>
<path d="M155.716 26.7535V41.2318H152.217V26.7535H155.716Z" fill="white"/>
<path d="M142.825 41.2318H137.474V26.7535H142.818C144.294 26.7535 145.564 27.0434 146.629 27.6231C147.699 28.1981 148.523 29.0276 149.103 30.1115C149.683 31.1908 149.973 32.4822 149.973 33.9856C149.973 35.4938 149.683 36.7898 149.103 37.8738C148.528 38.9578 147.706 39.7897 146.636 40.3694C145.566 40.9443 144.296 41.2318 142.825 41.2318ZM140.973 38.2485H142.691C143.502 38.2485 144.188 38.1118 144.748 37.8385C145.314 37.5604 145.74 37.1103 146.028 36.4882C146.32 35.8614 146.466 35.0272 146.466 33.9856C146.466 32.9441 146.32 32.1146 146.028 31.4972C145.736 30.8751 145.305 30.4273 144.734 30.154C144.169 29.8759 143.471 29.7369 142.642 29.7369H140.973V38.2485Z" fill="white"/>
<path d="M131.591 26.7535H135.083V36.0923C135.083 37.1716 134.826 38.1118 134.312 38.913C133.799 39.7095 133.082 40.3269 132.163 40.7653C131.244 41.1988 130.177 41.4156 128.961 41.4156C127.731 41.4156 126.656 41.1988 125.737 40.7653C124.818 40.3269 124.104 39.7095 123.595 38.913C123.086 38.1118 122.832 37.1716 122.832 36.0923V26.7535H126.331V35.7883C126.331 36.2879 126.439 36.7333 126.656 37.1245C126.878 37.5156 127.186 37.822 127.582 38.0435C127.978 38.265 128.438 38.3758 128.961 38.3758C129.484 38.3758 129.941 38.265 130.332 38.0435C130.728 37.822 131.037 37.5156 131.258 37.1245C131.48 36.7333 131.591 36.2879 131.591 35.7883V26.7535Z" fill="white"/>
<path d="M108.685 29.5955V26.7535H120.922V29.5955H116.532V41.2318H113.082V29.5955H108.685Z" fill="white"/>
<path d="M96.6736 41.2317V26.7534H106.769V29.5953H100.173V32.5645H106.253V35.4135H100.173V38.3898H106.769V41.2317H96.6736ZM100.562 25.3748L101.99 22.1865H105.051L102.916 25.3748H100.562Z" fill="white"/>
<path d="M86.6808 31.0937C86.6337 30.5753 86.424 30.1723 86.0517 29.8848C85.684 29.5926 85.1585 29.4465 84.4752 29.4465C84.0227 29.4465 83.6457 29.5054 83.3441 29.6232C83.0424 29.7411 82.8162 29.9037 82.6654 30.111C82.5146 30.3137 82.4368 30.547 82.4321 30.8109C82.4227 31.0277 82.4651 31.2186 82.5593 31.3835C82.6583 31.5485 82.7997 31.6946 82.9835 31.8218C83.172 31.9444 83.3983 32.0528 83.6622 32.147C83.9261 32.2413 84.223 32.3238 84.5529 32.3945L85.7972 32.6773C86.5135 32.8328 87.1451 33.0402 87.6918 33.2994C88.2432 33.5586 88.7051 33.8673 89.0774 34.2255C89.4544 34.5837 89.7396 34.996 89.9328 35.4626C90.126 35.9292 90.225 36.4524 90.2297 37.0321C90.225 37.9464 89.9941 38.7311 89.5369 39.3862C89.0798 40.0413 88.4223 40.5432 87.5645 40.892C86.7115 41.2407 85.6817 41.4151 84.4752 41.4151C83.2639 41.4151 82.2082 41.2337 81.308 40.8708C80.4079 40.5079 79.708 39.9565 79.2084 39.2165C78.7088 38.4766 78.452 37.5411 78.4378 36.4099H81.7888C81.817 36.8765 81.9419 37.2653 82.1634 37.5764C82.385 37.8875 82.6889 38.1231 83.0754 38.2834C83.4666 38.4436 83.919 38.5237 84.4328 38.5237C84.9041 38.5237 85.3047 38.4601 85.6346 38.3328C85.9692 38.2056 86.226 38.0289 86.4051 37.8026C86.5842 37.5764 86.6761 37.3172 86.6808 37.025C86.6761 36.7516 86.5913 36.5183 86.4263 36.3251C86.2614 36.1272 86.0069 35.9575 85.6628 35.8161C85.3235 35.67 84.8899 35.5357 84.3621 35.4131L82.8492 35.0597C81.5955 34.7722 80.6082 34.3079 79.8871 33.667C79.166 33.0213 78.8078 32.1494 78.8125 31.0513C78.8078 30.1558 79.0482 29.3711 79.5336 28.6971C80.019 28.0232 80.6906 27.4977 81.5484 27.1206C82.4062 26.7436 83.3841 26.5551 84.4822 26.5551C85.6039 26.5551 86.5772 26.746 87.4019 27.1277C88.2314 27.5047 88.8747 28.035 89.3319 28.7183C89.7891 29.4017 90.0223 30.1935 90.0318 31.0937H86.6808Z" fill="white"/>
<path d="M66.3714 41.2318V26.7535H76.4666V29.5955H69.8708V32.5647H75.9506V35.4137H69.8708V38.3899H76.4666V41.2318H66.3714Z" fill="white"/>
<path d="M56.9802 41.2318H51.6286V26.7535H56.9731C58.4483 26.7535 59.7184 27.0434 60.7836 27.6231C61.8534 28.1981 62.6782 29.0276 63.2579 30.1115C63.8376 31.1908 64.1274 32.4822 64.1274 33.9856C64.1274 35.4938 63.8376 36.7898 63.2579 37.8738C62.6829 38.9578 61.8605 39.7897 60.7906 40.3694C59.7208 40.9443 58.4506 41.2318 56.9802 41.2318ZM55.128 38.2485H56.8459C57.6565 38.2485 58.3422 38.1118 58.9031 37.8385C59.4687 37.5604 59.8952 37.1103 60.1827 36.4882C60.4749 35.8614 60.621 35.0272 60.621 33.9856C60.621 32.9441 60.4749 32.1146 60.1827 31.4972C59.8905 30.8751 59.4592 30.4273 58.889 30.154C58.3234 29.8759 57.6259 29.7369 56.7964 29.7369H55.128V38.2485Z" fill="white"/>
<path d="M192.116 2.69846V17.1768H189.147L183.385 8.82063H183.293V17.1768H179.794V2.69846H182.805L188.503 11.0404H188.624V2.69846H192.116Z" fill="#0EBBE3"/>
<path d="M177.55 9.93709C177.55 11.5301 177.244 12.8804 176.631 13.9879C176.018 15.0955 175.189 15.9367 174.142 16.5117C173.101 17.0867 171.932 17.3742 170.636 17.3742C169.335 17.3742 168.164 17.0843 167.122 16.5046C166.081 15.9249 165.254 15.0837 164.641 13.9808C164.033 12.8733 163.729 11.5254 163.729 9.93709C163.729 8.3441 164.033 6.99383 164.641 5.88628C165.254 4.77873 166.081 3.93746 167.122 3.36248C168.164 2.78749 169.335 2.5 170.636 2.5C171.932 2.5 173.101 2.78749 174.142 3.36248C175.189 3.93746 176.018 4.77873 176.631 5.88628C177.244 6.99383 177.55 8.3441 177.55 9.93709ZM173.973 9.93709C173.973 8.9945 173.838 8.198 173.57 7.54761C173.306 6.89722 172.924 6.40471 172.424 6.07009C171.93 5.73547 171.333 5.56815 170.636 5.56815C169.943 5.56815 169.347 5.73547 168.847 6.07009C168.348 6.40471 167.964 6.89722 167.695 7.54761C167.431 8.198 167.299 8.9945 167.299 9.93709C167.299 10.8797 167.431 11.6762 167.695 12.3266C167.964 12.977 168.348 13.4695 168.847 13.8041C169.347 14.1387 169.943 14.306 170.636 14.306C171.333 14.306 171.93 14.1387 172.424 13.8041C172.924 13.4695 173.306 12.977 173.57 12.3266C173.838 11.6762 173.973 10.8797 173.973 9.93709Z" fill="#0EBBE3"/>
<path d="M161.49 2.69846V17.1768H157.991V2.69846H161.49Z" fill="#0EBBE3"/>
<path d="M143.844 5.54039V2.69846H156.081V5.54039H151.691V17.1768H148.241V5.54039H143.844Z" fill="#0EBBE3"/>
<path d="M133.701 17.1768H129.94L134.825 2.69846H139.484L144.369 17.1768H140.608L137.208 6.34631H137.095L133.701 17.1768ZM133.199 11.4788H141.061V14.1369H133.199V11.4788Z" fill="#0EBBE3"/>
<path d="M128.171 2.69846V17.1768H124.672V2.69846H128.171Z" fill="#0EBBE3"/>
<path d="M122.472 7.9435H118.937C118.89 7.5806 118.793 7.25305 118.647 6.96084C118.501 6.66864 118.308 6.41885 118.068 6.21148C117.827 6.00411 117.542 5.84622 117.212 5.73782C116.887 5.62471 116.526 5.56815 116.131 5.56815C115.428 5.56815 114.823 5.74018 114.314 6.08423C113.809 6.42827 113.421 6.9255 113.147 7.57589C112.879 8.22628 112.744 9.01335 112.744 9.93709C112.744 10.8985 112.881 11.7045 113.154 12.3549C113.432 13.0005 113.821 13.4883 114.321 13.8182C114.825 14.1434 115.421 14.306 116.109 14.306C116.496 14.306 116.847 14.2565 117.163 14.1576C117.483 14.0586 117.764 13.9149 118.004 13.7263C118.249 13.5331 118.449 13.2998 118.605 13.0265C118.765 12.7484 118.876 12.435 118.937 12.0862L122.472 12.1074C122.411 12.7484 122.224 13.3799 121.913 14.002C121.607 14.6242 121.185 15.1921 120.648 15.7058C120.111 16.2148 119.456 16.6201 118.683 16.9217C117.914 17.2234 117.033 17.3742 116.039 17.3742C114.728 17.3742 113.555 17.0867 112.518 16.5117C111.486 15.932 110.671 15.0884 110.072 13.9808C109.473 12.8733 109.174 11.5254 109.174 9.93709C109.174 8.3441 109.478 6.99383 110.086 5.88628C110.694 4.77873 111.517 3.93746 112.553 3.36248C113.59 2.78749 114.752 2.5 116.039 2.5C116.915 2.5 117.726 2.62254 118.471 2.86761C119.215 3.10798 119.87 3.46145 120.436 3.92803C121.001 4.38991 121.461 4.95782 121.814 5.63178C122.168 6.30574 122.387 7.07631 122.472 7.9435Z" fill="#0EBBE3"/>
<path d="M107.089 9.93709C107.089 11.5301 106.783 12.8804 106.17 13.9879C105.557 15.0955 104.728 15.9367 103.681 16.5117C102.64 17.0867 101.471 17.3742 100.175 17.3742C98.8742 17.3742 97.703 17.0843 96.6615 16.5046C95.6199 15.9249 94.7928 15.0837 94.1801 13.9808C93.5721 12.8733 93.2681 11.5254 93.2681 9.93709C93.2681 8.3441 93.5721 6.99383 94.1801 5.88628C94.7928 4.77873 95.6199 3.93746 96.6615 3.36248C97.703 2.78749 98.8742 2.5 100.175 2.5C101.471 2.5 102.64 2.78749 103.681 3.36248C104.728 3.93746 105.557 4.77873 106.17 5.88628C106.783 6.99383 107.089 8.3441 107.089 9.93709ZM103.512 9.93709C103.512 8.9945 103.377 8.198 103.109 7.54761C102.845 6.89722 102.463 6.40471 101.964 6.07009C101.469 5.73547 100.873 5.56815 100.175 5.56815C99.4822 5.56815 98.886 5.73547 98.3864 6.07009C97.8868 6.40471 97.5027 6.89722 97.2341 7.54761C96.9702 8.198 96.8382 8.9945 96.8382 9.93709C96.8382 10.8797 96.9702 11.6762 97.2341 12.3266C97.5027 12.977 97.8868 13.4695 98.3864 13.8041C98.886 14.1387 99.4822 14.306 100.175 14.306C100.873 14.306 101.469 14.1387 101.964 13.8041C102.463 13.4695 102.845 12.977 103.109 12.3266C103.377 11.6762 103.512 10.8797 103.512 9.93709Z" fill="#0EBBE3"/>
<path d="M87.9056 7.03861C87.8585 6.52018 87.6488 6.11722 87.2764 5.82973C86.9088 5.53752 86.3833 5.39142 85.7 5.39142C85.2475 5.39142 84.8705 5.45033 84.5688 5.56815C84.2672 5.68598 84.041 5.84858 83.8902 6.05595C83.7393 6.25861 83.6616 6.4919 83.6569 6.75583C83.6475 6.97262 83.6899 7.1635 83.7841 7.32845C83.8831 7.49341 84.0245 7.63951 84.2083 7.76676C84.3968 7.8893 84.623 7.9977 84.887 8.09196C85.1509 8.18622 85.4478 8.2687 85.7777 8.33939L87.0219 8.62217C87.7383 8.7777 88.3699 8.98507 88.9166 9.24428C89.468 9.5035 89.9299 9.8122 90.3022 10.1704C90.6792 10.5286 90.9644 10.941 91.1576 11.4075C91.3508 11.8741 91.4498 12.3973 91.4545 12.977C91.4498 13.8913 91.2189 14.676 90.7617 15.3311C90.3045 15.9862 89.6471 16.4881 88.7893 16.8369C87.9363 17.1857 86.9065 17.36 85.7 17.36C84.4887 17.36 83.433 17.1786 82.5328 16.8157C81.6327 16.4528 80.9328 15.9014 80.4332 15.1614C79.9336 14.4215 79.6768 13.486 79.6626 12.3549H83.0135C83.0418 12.8214 83.1667 13.2103 83.3882 13.5213C83.6097 13.8324 83.9137 14.068 84.3002 14.2283C84.6914 14.3885 85.1438 14.4686 85.6575 14.4686C86.1288 14.4686 86.5294 14.405 86.8594 14.2778C87.194 14.1505 87.4508 13.9738 87.6299 13.7475C87.809 13.5213 87.9009 13.2621 87.9056 12.9699C87.9009 12.6965 87.8161 12.4633 87.6511 12.27C87.4862 12.0721 87.2317 11.9024 86.8876 11.761C86.5483 11.6149 86.1147 11.4806 85.5868 11.3581L84.074 11.0046C82.8203 10.7171 81.8329 10.2529 81.1119 9.6119C80.3908 8.96622 80.0326 8.09432 80.0373 6.99619C80.0326 6.10072 80.273 5.31601 80.7584 4.64205C81.2438 3.9681 81.9154 3.4426 82.7732 3.06556C83.631 2.68852 84.6089 2.5 85.707 2.5C86.8287 2.5 87.8019 2.69088 88.6267 3.07263C89.4562 3.44967 90.0995 3.97988 90.5567 4.66326C91.0138 5.34664 91.2471 6.13843 91.2566 7.03861H87.9056Z" fill="#0EBBE3"/>
<path d="M74.5658 7.03861C74.5187 6.52018 74.309 6.11722 73.9366 5.82973C73.569 5.53752 73.0435 5.39142 72.3601 5.39142C71.9077 5.39142 71.5306 5.45033 71.229 5.56815C70.9274 5.68598 70.7012 5.84858 70.5504 6.05595C70.3995 6.25861 70.3218 6.4919 70.3171 6.75583C70.3076 6.97262 70.3501 7.1635 70.4443 7.32845C70.5433 7.49341 70.6847 7.63951 70.8685 7.76676C71.057 7.8893 71.2832 7.9977 71.5471 8.09196C71.8111 8.18622 72.108 8.2687 72.4379 8.33939L73.6821 8.62217C74.3985 8.7777 75.03 8.98507 75.5768 9.24428C76.1282 9.5035 76.59 9.8122 76.9624 10.1704C77.3394 10.5286 77.6245 10.941 77.8178 11.4075C78.011 11.8741 78.11 12.3973 78.1147 12.977C78.11 13.8913 77.879 14.676 77.4219 15.3311C76.9647 15.9862 76.3073 16.4881 75.4495 16.8369C74.5965 17.1857 73.5667 17.36 72.3601 17.36C71.1489 17.36 70.0932 17.1786 69.193 16.8157C68.2928 16.4528 67.593 15.9014 67.0934 15.1614C66.5938 14.4215 66.3369 13.486 66.3228 12.3549H69.6737C69.702 12.8214 69.8269 13.2103 70.0484 13.5213C70.2699 13.8324 70.5739 14.068 70.9604 14.2283C71.3516 14.3885 71.804 14.4686 72.3177 14.4686C72.789 14.4686 73.1896 14.405 73.5195 14.2778C73.8542 14.1505 74.111 13.9738 74.2901 13.7475C74.4692 13.5213 74.5611 13.2621 74.5658 12.9699C74.5611 12.6965 74.4763 12.4633 74.3113 12.27C74.1464 12.0721 73.8919 11.9024 73.5478 11.761C73.2085 11.6149 72.7749 11.4806 72.247 11.3581L70.7342 11.0046C69.4805 10.7171 68.4931 10.2529 67.772 9.6119C67.051 8.96622 66.6928 8.09432 66.6975 6.99619C66.6928 6.10072 66.9331 5.31601 67.4186 4.64205C67.904 3.9681 68.5756 3.4426 69.4334 3.06556C70.2911 2.68852 71.2691 2.5 72.3672 2.5C73.4889 2.5 74.4621 2.69088 75.2869 3.07263C76.1164 3.44967 76.7597 3.97988 77.2169 4.66326C77.674 5.34664 77.9073 6.13843 77.9167 7.03861H74.5658Z" fill="#0EBBE3"/>
<path d="M54.761 17.1768H51L55.885 2.69846H60.5438L65.4288 17.1768H61.6678L58.2674 6.34631H58.1543L54.761 17.1768ZM54.259 11.4788H62.1203V14.1369H54.259V11.4788Z" fill="#0EBBE3"/>
<path d="M3.55159 21.8629C3.55159 19.9539 3.85956 18.1182 4.42798 16.4049L4.55763 16.0294L5.22463 16.2776C4.60179 18.0187 4.26157 19.8996 4.26157 21.8629C4.26157 23.8261 4.60179 25.707 5.22463 27.4481L4.55763 27.6956C3.90684 25.8763 3.55159 23.9119 3.55159 21.8629ZM35.9141 16.0294C36.5651 17.849 36.9209 19.8135 36.9209 21.8629C36.9209 23.912 36.565 25.8762 35.9141 27.6956L35.2478 27.4481C35.8706 25.707 36.2109 23.8261 36.2109 21.8629C36.2109 19.8996 35.8706 18.0187 35.2478 16.2776L35.9141 16.0294Z" fill="#0EBBE3"/>
<path d="M33.37 21.861C33.37 29.2598 27.4894 35.2576 20.2353 35.2576C12.9812 35.2576 7.1006 29.2598 7.1006 21.861C7.1006 14.4623 12.9812 8.46439 20.2353 8.46439C27.4894 8.46439 33.37 14.4623 33.37 21.861Z" fill="#0EBBE3"/>
<path d="M32.7154 21.861C32.7154 14.8309 27.1279 9.13185 20.2352 9.13185C13.3425 9.13192 7.755 14.831 7.755 21.861C7.75501 28.8911 13.3426 34.5902 20.2352 34.5902L20.2353 35.2576L19.8965 35.2531C12.9115 35.0727 7.28189 29.3307 7.10508 22.2065L7.1006 21.861C7.1006 14.4623 12.9812 8.46439 20.2353 8.46439C27.4894 8.46439 33.37 14.4623 33.37 21.861L33.3659 22.2065C33.1863 29.4456 27.3762 35.2576 20.2353 35.2576L20.2352 34.5902C27.1279 34.5902 32.7154 28.8911 32.7154 21.861Z" fill="#0EBBE3"/>
<path d="M40.5247 21.5C40.5246 10.2707 31.5996 1.16762 20.5898 1.16745C9.57999 1.16745 0.654454 10.2706 0.654396 21.5C0.654396 32.7294 9.57996 41.8325 20.5898 41.8325V42.5L20.0581 42.4935C8.93245 42.206 0 32.9168 0 21.5C5.80127e-05 9.90201 9.21859 0.5 20.5898 0.5L21.1209 0.50717C32.2466 0.794628 41.179 10.0832 41.1791 21.5C41.1791 33.0979 31.961 42.4998 20.5898 42.5V41.8325C31.5996 41.8324 40.5247 32.7293 40.5247 21.5Z" fill="#0EBBE3"/>
<path d="M20.294 23.1195C20.6649 27.8479 22.3338 30.6849 24.9298 32.9544C22.8249 32.9761 21.4066 30.3065 20.1086 30.4957C18.8105 30.6848 17.5125 33.1436 15.6581 32.9544C16.7707 32.0088 20.294 28.7936 20.294 23.1195ZM20.1086 31.0631C20.6206 31.0631 21.0357 31.4865 21.0357 32.0087C21.0357 32.531 20.6206 32.9544 20.1086 32.9544C19.5965 32.9544 19.1814 32.531 19.1814 32.0087C19.1814 31.4865 19.5965 31.0631 20.1086 31.0631ZM20.2998 22.5573C17.3922 24.792 16.4051 26.5157 16.2202 30.8791C15.2931 29.5552 16.2202 26.9073 15.2931 25.7725C14.3659 24.6378 13.4387 25.9617 11.9552 26.5291C13.8141 23.9634 15.5728 23.0884 20.2998 22.5573ZM20.6605 22.5573C25.3875 23.0884 27.1462 23.9634 29.0051 26.5291C27.5216 25.9617 26.5944 24.6378 25.6672 25.7725C24.7401 26.9073 25.6672 29.5552 24.7401 30.8791C24.5552 26.5157 23.5681 24.792 20.6605 22.5573ZM14.1804 25.9617C14.6925 25.9617 15.1076 26.3851 15.1076 26.9073C15.1076 27.4296 14.6925 27.853 14.1804 27.853C13.6684 27.853 13.2533 27.4296 13.2533 26.9073C13.2533 26.3851 13.6684 25.9617 14.1804 25.9617ZM26.7798 25.9617C27.2919 25.9617 27.707 26.3851 27.707 26.9073C27.707 27.4296 27.2919 27.853 26.7798 27.853C26.2678 27.853 25.8527 27.4296 25.8527 26.9073C25.8527 26.3851 26.2678 25.9617 26.7798 25.9617ZM10.6572 17.0725C11.5843 18.2073 14.7367 21.8007 20.2998 21.8008C15.6638 22.179 12.8823 23.8812 10.6572 26.5291C10.6359 24.3821 13.2533 22.9355 13.0678 21.6116C12.8824 20.2877 10.4716 18.9638 10.6572 17.0725ZM30.3031 17.0725C30.4886 18.9638 28.0779 20.2877 27.8924 21.6116C27.707 22.9356 30.3244 24.3821 30.3031 26.5291C28.078 23.8812 25.2965 22.179 20.6605 21.8008C26.2237 21.8008 29.376 18.2073 30.3031 17.0725ZM11.5844 20.666C12.0964 20.666 12.5115 21.0894 12.5115 21.6116C12.5115 22.1339 12.0964 22.5573 11.5844 22.5573C11.0723 22.5573 10.6572 22.1339 10.6572 21.6116C10.6572 21.0894 11.0723 20.666 11.5844 20.666ZM29.3759 20.666C29.888 20.666 30.3031 21.0894 30.3031 21.6116C30.3031 22.1339 29.888 22.5573 29.3759 22.5573C28.8639 22.5573 28.4488 22.1339 28.4488 21.6116C28.4488 21.0894 28.8639 20.666 29.3759 20.666ZM16.2188 12.7224C16.4036 17.0858 17.3908 18.8095 20.2983 21.0442C15.5714 20.5132 13.8126 19.6381 11.9538 17.0725C13.4373 17.6399 14.3644 18.9638 15.2916 17.829C16.2188 16.6942 15.2916 14.0464 16.2188 12.7224ZM24.7386 12.7224C25.6658 14.0463 24.7387 16.6942 25.6658 17.829C26.593 18.9638 27.5201 17.6399 29.0036 17.0725C27.1447 19.6381 25.3861 20.5132 20.6591 21.0442C23.5667 18.8095 24.5538 17.0859 24.7386 12.7224ZM15.6581 10.6471C17.5124 10.4579 18.8105 12.9167 20.1086 13.1059C21.4066 13.295 22.8249 10.6254 24.9298 10.6471C22.3338 12.9166 20.6649 15.7536 20.294 20.482C20.294 14.808 16.7707 11.5928 15.6581 10.6471ZM14.179 15.7485C14.691 15.7485 15.1061 16.1719 15.1062 16.6942C15.1062 17.2165 14.6911 17.6399 14.179 17.6399C13.667 17.6398 13.2518 17.2165 13.2518 16.6942C13.2518 16.172 13.667 15.7486 14.179 15.7485ZM26.7784 15.7485C27.2904 15.7485 27.7055 16.1719 27.7056 16.6942C27.7056 17.2165 27.2905 17.6399 26.7784 17.6399C26.2663 17.6398 25.8512 17.2165 25.8512 16.6942C25.8512 16.172 26.2664 15.7486 26.7784 15.7485ZM20.1086 10.6471C20.6206 10.6471 21.0357 11.0706 21.0357 11.5928C21.0357 12.1151 20.6206 12.5385 20.1086 12.5385C19.5965 12.5384 19.1814 12.1151 19.1814 11.5928C19.1814 11.0706 19.5965 10.6472 20.1086 10.6471Z" fill="white"/>
<path d="M10.0841 10.0981C10.0514 10.0633 10.0171 10.0372 9.98125 10.0199C9.94454 10.0016 9.90176 9.99386 9.85289 9.99655C9.80402 9.99925 9.7441 10.0128 9.67312 10.0372C9.60125 10.0606 9.51373 10.0985 9.41056 10.1508C9.29191 10.2092 9.17386 10.2598 9.05641 10.3026C8.93901 10.3436 8.8246 10.3698 8.71319 10.3814C8.60177 10.393 8.49576 10.383 8.39513 10.3514C8.29543 10.319 8.20306 10.2576 8.11805 10.1674C8.03569 10.08 7.98019 9.98249 7.95155 9.87496C7.92292 9.76743 7.91923 9.65533 7.94049 9.53867C7.96087 9.42107 8.00474 9.30395 8.0721 9.18731C8.13857 9.06972 8.22711 8.95673 8.33769 8.84834C8.48515 8.70382 8.63987 8.6037 8.80186 8.54798C8.96388 8.49042 9.1214 8.47887 9.27439 8.51332C9.42651 8.54684 9.5619 8.62657 9.68057 8.75253L9.23268 9.19151C9.18043 9.13606 9.12286 9.09847 9.05997 9.07875C8.99711 9.05719 8.93113 9.05677 8.86203 9.0775C8.79385 9.09732 8.72566 9.14065 8.65746 9.20749C8.59111 9.27253 8.54509 9.33751 8.51942 9.40245C8.49378 9.46555 8.48582 9.52578 8.49555 9.58314C8.5062 9.6396 8.53101 9.6885 8.56997 9.72986C8.60097 9.76276 8.6376 9.78471 8.67987 9.79571C8.72218 9.80487 8.77053 9.80539 8.82493 9.79727C8.87936 9.78731 8.94028 9.76919 9.00768 9.7429C9.07509 9.71661 9.14852 9.6826 9.22797 9.64088C9.36857 9.56998 9.50026 9.51503 9.62305 9.47604C9.74677 9.43614 9.86244 9.41498 9.97005 9.41255C10.0777 9.41013 10.1776 9.42875 10.27 9.46843C10.3632 9.5072 10.4501 9.56936 10.5307 9.65489C10.6166 9.74607 10.6753 9.84407 10.7067 9.94889C10.739 10.0528 10.7459 10.1617 10.7274 10.2757C10.709 10.3878 10.6665 10.5008 10.6001 10.6147C10.5337 10.7286 10.4448 10.8402 10.3333 10.9495C10.2319 11.0489 10.1195 11.1337 9.9961 11.204C9.8718 11.2734 9.74345 11.3197 9.61102 11.3428C9.47951 11.365 9.3495 11.3569 9.22099 11.3183C9.09252 11.2779 8.97249 11.1985 8.8609 11.08L9.31155 10.6383C9.37 10.7004 9.42835 10.7444 9.4866 10.7705C9.54396 10.7956 9.60117 10.8055 9.65822 10.8003C9.71619 10.7941 9.77399 10.7736 9.83162 10.7388C9.88925 10.704 9.94709 10.6581 10.0052 10.6012C10.0724 10.5353 10.1179 10.4726 10.1417 10.4132C10.1655 10.3519 10.1716 10.2944 10.16 10.2407C10.1484 10.1869 10.1231 10.1394 10.0841 10.0981Z" fill="white"/>
<path d="M11.2102 6.53567L12.7254 8.92685L12.2021 9.27181L10.6869 6.88063L11.2102 6.53567ZM11.9235 6.06547L12.1868 6.48097L10.2514 7.75678L9.98812 7.34128L11.9235 6.06547Z" fill="white"/>
<path d="M14.4642 4.84851L15.0461 4.61572L15.7154 6.35602C15.7947 6.56233 15.8186 6.75301 15.7871 6.92806C15.7568 7.10263 15.6798 7.25595 15.5562 7.38801C15.4326 7.52007 15.2715 7.62585 15.0728 7.70535C14.8729 7.78532 14.683 7.81997 14.5032 7.80931C14.3246 7.79816 14.1647 7.73958 14.0237 7.63355C13.8839 7.52705 13.7743 7.37064 13.695 7.16433L13.0257 5.42404L13.6093 5.19054L14.2786 6.93083C14.3225 7.04491 14.3751 7.13169 14.4364 7.19118C14.4985 7.24898 14.5681 7.28201 14.6455 7.29029C14.7223 7.29735 14.806 7.28279 14.8964 7.24661C14.9868 7.21043 15.0573 7.16334 15.1077 7.10534C15.1589 7.04566 15.1868 6.97359 15.1914 6.88913C15.1967 6.80299 15.1774 6.70288 15.1335 6.5888L14.4642 4.84851Z" fill="white"/>
<path d="M17.7521 6.80068L17.1482 6.91074L17.067 6.42497L17.6671 6.3156C17.8043 6.29061 17.9144 6.23743 17.9975 6.15607C18.0804 6.07342 18.1353 5.96411 18.1621 5.82812C18.1887 5.69085 18.1859 5.53045 18.1538 5.34694L18.1312 5.21797C18.1069 5.07937 18.0717 4.95998 18.0256 4.8598C17.9792 4.75833 17.9227 4.67659 17.856 4.61459C17.7894 4.55258 17.7126 4.51095 17.6258 4.48969C17.5402 4.46821 17.4458 4.46686 17.3427 4.48566L16.7312 4.5971L16.6459 4.11009L17.2574 3.99865C17.4436 3.96472 17.6191 3.96585 17.7838 4.00204C17.9498 4.038 18.0992 4.10545 18.2321 4.20439C18.3663 4.3031 18.4784 4.42833 18.5686 4.58007C18.6588 4.73182 18.7215 4.90778 18.7565 5.10798L18.7785 5.2331C18.8133 5.43201 18.8143 5.61921 18.7814 5.79471C18.7483 5.96893 18.6856 6.12602 18.5933 6.26601C18.502 6.40448 18.3852 6.51978 18.2429 6.61192C18.1007 6.70406 17.9371 6.76698 17.7521 6.80068ZM17.0064 4.0444L17.4973 6.84712L16.8821 6.95924L16.3911 4.15652L17.0064 4.0444Z" fill="white"/>
<path d="M21.7276 5.96218L21.7244 6.45494L20.2386 6.44472L20.2419 5.95196L21.7276 5.96218ZM20.4702 3.59914L20.4514 6.44618L19.8264 6.44188L19.8452 3.59484L20.4702 3.59914ZM21.5439 4.75243L21.5408 5.22955L20.2467 5.22065L20.2498 4.74353L21.5439 4.75243ZM21.7451 3.60791L21.7418 4.10262L20.2542 4.09239L20.2574 3.59768L21.7451 3.60791Z" fill="white"/>
<path d="M25.2725 4.15838L24.7144 6.94801L24.1039 6.82095L23.4315 4.80303L23.0708 6.60594L22.4584 6.4785L23.0165 3.68887L23.6289 3.81631L24.3032 5.83463L24.6639 4.03172L25.2725 4.15838Z" fill="white"/>
<path d="M27.8023 5.0291L26.7135 7.6507L26.1398 7.40283L27.2285 4.78122L27.8023 5.0291ZM28.5843 5.36697L28.3951 5.82251L26.2732 4.90575L26.4624 4.45021L28.5843 5.36697Z" fill="white"/>
<path d="M30.1938 6.02998L30.0364 6.29391C29.9925 6.36741 29.9331 6.43432 29.8582 6.49466C29.7851 6.55455 29.7055 6.60513 29.6196 6.64639C29.5343 6.68654 29.4506 6.71395 29.3685 6.72863L29.2163 6.45333C29.2938 6.41134 29.3696 6.36074 29.4438 6.30152C29.5187 6.24119 29.5874 6.15868 29.6499 6.054L29.8073 5.79008L30.1938 6.02998Z" fill="white"/>
<path d="M31.0682 9.43579C31.0973 9.39775 31.1177 9.35942 31.1294 9.3208C31.1419 9.28114 31.1433 9.23684 31.1338 9.18789C31.1242 9.13894 31.1025 9.08037 31.0688 9.01218C31.0358 8.94296 30.9866 8.85999 30.9211 8.76328C30.8475 8.65181 30.7816 8.53984 30.7234 8.42736C30.6669 8.31466 30.6251 8.2029 30.5981 8.09207C30.571 7.98124 30.5656 7.87278 30.5819 7.7667C30.5992 7.66142 30.6455 7.55945 30.721 7.46077C30.7941 7.36518 30.8808 7.29528 30.9811 7.25106C31.0814 7.20684 31.1896 7.18716 31.3059 7.19202C31.4229 7.19585 31.5428 7.22346 31.6656 7.27486C31.7892 7.32523 31.9114 7.39853 32.0324 7.49475C32.1936 7.62304 32.3128 7.76498 32.3899 7.92059C32.4688 8.07597 32.5025 8.23335 32.4908 8.39271C32.4799 8.55105 32.4218 8.69909 32.3165 8.83682L31.8267 8.44714C31.8731 8.3865 31.9014 8.32303 31.9116 8.25673C31.9235 8.1902 31.9146 8.12353 31.8846 8.05672C31.8557 7.99071 31.8039 7.92803 31.7293 7.8687C31.6568 7.81097 31.5872 7.77376 31.5205 7.75709C31.4556 7.74019 31.396 7.74073 31.3417 7.75872C31.2885 7.7775 31.2445 7.80951 31.2099 7.85474C31.1824 7.89071 31.1663 7.93082 31.1617 7.97506C31.1588 8.01908 31.1652 8.06796 31.1808 8.12172C31.1982 8.17526 31.2245 8.23418 31.2596 8.29849C31.2947 8.36279 31.3382 8.43209 31.39 8.50636C31.4788 8.63821 31.5509 8.76334 31.6062 8.88176C31.6625 9.00097 31.6995 9.11473 31.7172 9.22304C31.7349 9.33134 31.731 9.43492 31.7057 9.53378C31.6813 9.63345 31.6334 9.73005 31.5618 9.82358C31.4856 9.92329 31.3988 9.99645 31.3016 10.0431C31.2053 10.0905 31.1006 10.113 30.9874 10.1105C30.8759 10.1079 30.7602 10.0811 30.6403 10.0303C30.5203 9.97945 30.3993 9.90553 30.2774 9.80851C30.1665 9.72031 30.0682 9.61893 29.9823 9.50435C29.8973 9.38875 29.8342 9.26575 29.7929 9.13535C29.7526 9.00575 29.742 8.87333 29.7611 8.7381C29.7821 8.60264 29.842 8.47016 29.9411 8.34065L30.4339 8.73273C30.382 8.80057 30.3476 8.86575 30.3305 8.92827C30.3143 8.98976 30.3128 9.04892 30.3261 9.10577C30.3404 9.16341 30.3685 9.21885 30.4104 9.27208C30.4524 9.3253 30.5051 9.37717 30.5686 9.42769C30.6422 9.48622 30.7095 9.52325 30.7706 9.53877C30.8334 9.55407 30.8901 9.55203 30.9406 9.53267C30.9911 9.51331 31.0336 9.48101 31.0682 9.43579Z" fill="white"/>
<path d="M33.9619 32.5145L32.7228 30.4509L33.159 29.936L34.5957 32.5949L34.3199 32.9204L33.9619 32.5145ZM31.8605 31.4689L34.0434 32.4183L34.4941 32.7147L34.2146 33.0447L31.4243 31.9838L31.8605 31.4689ZM32.6668 32.1381L32.3013 31.816L33.2526 30.6929L33.6182 31.0151L32.6668 32.1381Z" fill="white"/>
<path d="M30.2938 33.9783C30.3229 34.0163 30.3544 34.0458 30.3883 34.0668C30.423 34.0888 30.4647 34.101 30.5136 34.1034C30.5625 34.1059 30.6235 34.0987 30.6965 34.0818C30.7704 34.066 30.8612 34.0375 30.9691 33.9963C31.093 33.9506 31.2155 33.9125 31.3367 33.8823C31.4576 33.8538 31.574 33.8396 31.686 33.8398C31.798 33.8399 31.9024 33.8609 31.9994 33.9028C32.0953 33.9455 32.181 34.0162 32.2565 34.1149C32.3296 34.2104 32.375 34.3132 32.3927 34.4232C32.4104 34.5331 32.4028 34.645 32.3699 34.7588C32.3378 34.8737 32.2824 34.9856 32.2037 35.0946C32.1258 35.2046 32.0263 35.3077 31.9054 35.404C31.7442 35.5324 31.5803 35.6158 31.4135 35.6543C31.2466 35.6946 31.0887 35.6896 30.94 35.6393C30.7921 35.5901 30.6654 35.4966 30.56 35.3589L31.0497 34.9691C31.0961 35.0297 31.1496 35.0731 31.2101 35.0993C31.2705 35.1273 31.3361 35.1346 31.4069 35.1212C31.4767 35.1086 31.5489 35.0727 31.6235 35.0133C31.696 34.9556 31.7483 34.8957 31.7804 34.8338C31.8122 34.7737 31.8262 34.7146 31.8223 34.6566C31.8173 34.5993 31.7976 34.5481 31.763 34.5028C31.7355 34.4669 31.7012 34.4412 31.6603 34.4258C31.6191 34.4123 31.5711 34.4067 31.5161 34.4091C31.461 34.4133 31.3986 34.425 31.3289 34.4441C31.2592 34.4632 31.1827 34.4894 31.0995 34.5226C30.9525 34.5784 30.816 34.6193 30.6899 34.6452C30.5629 34.672 30.4457 34.6809 30.3384 34.6721C30.2311 34.6633 30.1335 34.6343 30.0457 34.5852C29.9568 34.5368 29.8766 34.4659 29.805 34.3724C29.7287 34.2727 29.6802 34.1691 29.6595 34.0616C29.6378 33.9548 29.6419 33.8457 29.6717 33.7343C29.7014 33.6247 29.7549 33.5168 29.8324 33.4104C29.9099 33.3041 30.0096 33.2023 30.1315 33.1053C30.2424 33.017 30.3627 32.9444 30.4925 32.8873C30.6231 32.8313 30.7555 32.7987 30.8895 32.7896C31.0226 32.7812 31.1511 32.8029 31.275 32.8547C31.3988 32.9084 31.5102 32.9999 31.6093 33.1294L31.1166 33.5216C31.0647 33.4538 31.0111 33.4039 30.9558 33.3719C30.9012 33.3409 30.8453 33.325 30.788 33.3243C30.7298 33.3244 30.6702 33.3388 30.6094 33.3673C30.5486 33.3959 30.4864 33.4355 30.4229 33.486C30.3494 33.5446 30.2978 33.6022 30.2682 33.6588C30.2384 33.7173 30.2265 33.7739 30.2327 33.8285C30.2388 33.8831 30.2592 33.9331 30.2938 33.9783Z" fill="white"/>
<path d="M27.7539 35.6087C27.7755 35.6516 27.801 35.6866 27.8305 35.7137C27.8605 35.742 27.8993 35.762 27.9468 35.7737C27.9944 35.7854 28.0556 35.79 28.1305 35.7874C28.2059 35.7861 28.3004 35.7754 28.4139 35.7555C28.5441 35.7343 28.6714 35.7204 28.7959 35.7138C28.9199 35.709 29.0369 35.7173 29.1469 35.7389C29.2569 35.7604 29.3556 35.801 29.4431 35.8607C29.5295 35.921 29.6007 36.0068 29.6567 36.1182C29.711 36.226 29.7367 36.3357 29.7339 36.447C29.731 36.5584 29.703 36.6669 29.6498 36.7724C29.5971 36.8791 29.5221 36.9784 29.4248 37.0704C29.328 37.1636 29.2114 37.2459 29.0749 37.3173C28.893 37.4126 28.7166 37.4632 28.5458 37.4691C28.3744 37.4768 28.2202 37.4417 28.0834 37.3639C27.9471 37.2872 27.8399 37.1712 27.7617 37.0158L28.3143 36.7265C28.3487 36.7949 28.3933 36.8478 28.448 36.8851C28.5021 36.9241 28.5652 36.9439 28.6372 36.9442C28.7081 36.9452 28.7856 36.9237 28.8698 36.8797C28.9516 36.8368 29.014 36.788 29.0569 36.7333C29.0992 36.6804 29.1238 36.625 29.1306 36.5672C29.1363 36.51 29.1263 36.4559 29.1006 36.4049C29.0802 36.3643 29.0513 36.3326 29.0139 36.3096C28.976 36.2885 28.9298 36.2738 28.8754 36.2657C28.8205 36.2593 28.757 36.2588 28.685 36.2642C28.6131 36.2697 28.5331 36.2807 28.4453 36.2974C28.2907 36.3241 28.149 36.3382 28.0204 36.3396C27.8907 36.3416 27.774 36.328 27.6702 36.2988C27.5664 36.2696 27.4759 36.2225 27.3986 36.1574C27.3202 36.093 27.2545 36.008 27.2013 35.9024C27.1447 35.7899 27.1161 35.6789 27.1156 35.5693C27.1139 35.4603 27.1379 35.3539 27.1877 35.2502C27.237 35.1482 27.3094 35.0524 27.4051 34.9627C27.5008 34.8731 27.6174 34.7922 27.755 34.7202C27.8801 34.6547 28.0116 34.6063 28.1496 34.5751C28.2882 34.5451 28.4242 34.5383 28.5576 34.555C28.6898 34.5722 28.812 34.6181 28.9242 34.6927C29.0359 34.769 29.1285 34.8803 29.2021 35.0264L28.6461 35.3175C28.6075 35.241 28.5641 35.1817 28.5156 35.1396C28.4677 35.0988 28.4157 35.0725 28.3596 35.0609C28.3023 35.0498 28.2412 35.0525 28.1762 35.069C28.1112 35.0854 28.0429 35.1124 27.9712 35.1499C27.8882 35.1933 27.827 35.2401 27.7875 35.29C27.7474 35.3418 27.7254 35.3951 27.7214 35.4499C27.7174 35.5048 27.7282 35.5577 27.7539 35.6087Z" fill="white"/>
<path d="M24.3064 37.6475L24.273 37.5251C24.2162 37.3166 24.1935 37.1214 24.2049 36.9396C24.2151 36.7581 24.256 36.5942 24.3276 36.4481C24.398 36.3023 24.4954 36.1779 24.6199 36.0749C24.7435 35.9736 24.8909 35.8986 25.062 35.8501C25.2332 35.8015 25.398 35.7879 25.5564 35.8093C25.7151 35.8319 25.8627 35.8868 25.9992 35.9739C26.1345 36.0614 26.2531 36.18 26.3549 36.3297C26.4568 36.4794 26.5361 36.6585 26.593 36.867L26.6264 36.9895C26.6832 37.198 26.7059 37.3931 26.6945 37.575C26.6834 37.7581 26.6426 37.9226 26.5723 38.0684C26.5007 38.2145 26.4025 38.3384 26.2777 38.4401C26.1532 38.5431 26.0053 38.6189 25.8342 38.6674C25.663 38.716 25.4981 38.7289 25.3393 38.7063C25.1809 38.6849 25.0347 38.6303 24.9007 38.5425C24.7654 38.455 24.6467 38.3358 24.5445 38.1848C24.4426 38.0351 24.3633 37.856 24.3064 37.6475ZM24.8807 37.3527L24.9151 37.4789C24.9532 37.6183 24.999 37.7379 25.0528 37.8377C25.1068 37.9387 25.1672 38.019 25.2339 38.0786C25.3005 38.1382 25.3733 38.1764 25.4522 38.1932C25.5314 38.2114 25.6147 38.208 25.7022 38.1832C25.7933 38.1574 25.8676 38.116 25.925 38.0591C25.9828 38.0035 26.0252 37.9326 26.0521 37.8465C26.0778 37.7607 26.0883 37.6603 26.0834 37.5453C26.0777 37.432 26.0559 37.3056 26.0178 37.1661L25.9834 37.0399C25.9458 36.9018 25.9005 36.782 25.8477 36.6806C25.7939 36.5809 25.7336 36.5006 25.6666 36.4397C25.5996 36.3789 25.5271 36.3392 25.4491 36.3208C25.3698 36.3027 25.2847 36.3065 25.1935 36.3324C25.1061 36.3572 25.0337 36.398 24.9762 36.4549C24.9175 36.5121 24.8749 36.5844 24.8483 36.6718C24.8217 36.7592 24.8113 36.8596 24.817 36.973C24.8218 37.088 24.8431 37.2145 24.8807 37.3527Z" fill="white"/>
<path d="M21.6063 37.4797L20.9866 37.5229C20.9838 37.3271 21.0245 37.1511 21.1088 36.995C21.192 36.8402 21.3136 36.7148 21.4737 36.6187C21.6339 36.5239 21.8281 36.4686 22.0564 36.4527C22.2387 36.4399 22.4041 36.4604 22.5525 36.5141C22.7008 36.5678 22.8293 36.6503 22.938 36.7617C23.0455 36.8744 23.1316 37.0128 23.1964 37.1768C23.26 37.3422 23.2989 37.531 23.3131 37.743L23.3247 37.9166C23.3389 38.1286 23.3243 38.321 23.2808 38.4939C23.2373 38.6668 23.1685 38.8166 23.0745 38.9434C22.9805 39.0702 22.8642 39.1704 22.7257 39.2441C22.5872 39.3178 22.4299 39.3607 22.2539 39.373C22.0167 39.3895 21.8136 39.3599 21.6446 39.2841C21.4755 39.2084 21.3413 39.0975 21.2418 38.9516C21.1411 38.8057 21.0753 38.6358 21.0443 38.442L21.666 38.3987C21.6785 38.5089 21.7051 38.6004 21.7459 38.6734C21.7867 38.7476 21.8454 38.8017 21.922 38.8356C21.9986 38.8694 22.0981 38.8821 22.2205 38.8736C22.3097 38.8673 22.387 38.845 22.4523 38.8064C22.5164 38.768 22.5683 38.7115 22.6082 38.6368C22.6467 38.5623 22.6731 38.469 22.6874 38.3569C22.7018 38.2461 22.7039 38.1153 22.6938 37.9645L22.6819 37.7869C22.6719 37.6374 22.6537 37.5086 22.6272 37.4007C22.6008 37.2928 22.5641 37.2045 22.5172 37.1359C22.4691 37.0674 22.41 37.018 22.3401 36.9876C22.2702 36.9571 22.1868 36.9453 22.0898 36.9521C21.9789 36.9598 21.8876 36.9838 21.816 37.0241C21.7445 37.0656 21.6914 37.1242 21.6568 37.1998C21.6221 37.2754 21.6053 37.3687 21.6063 37.4797Z" fill="white"/>
<path d="M19.1905 39.3869L19.4324 36.5505L20.0531 36.6056L19.8112 39.442L19.1905 39.3869Z" fill="white"/>
<path d="M16.7449 38.3951L17.9871 36.3334L18.6348 36.4967L16.9618 39.0078L16.5524 38.9046L16.7449 38.3951ZM16.7066 36.0107L16.8659 38.4256L16.8111 38.9698L16.3961 38.8651L16.0589 35.8474L16.7066 36.0107ZM16.487 37.0471L16.603 36.5687L18.0156 36.9248L17.8997 37.4031L16.487 37.0471Z" fill="white"/>
<path d="M13.296 37.7562L14.4621 35.1694L15.0282 35.4349L13.8621 38.0217L13.296 37.7562ZM12.5243 37.3943L12.727 36.9448L14.8207 37.9267L14.6181 38.3762L12.5243 37.3943Z" fill="white"/>
<path d="M10.8858 36.4579L12.4181 34.0781L12.9389 34.427L11.4066 36.8068L10.8858 36.4579Z" fill="white"/>
<path d="M8.90921 33.0008L8.99353 32.9072C9.1371 32.7479 9.28762 32.6252 9.44507 32.5391C9.60158 32.4521 9.75958 32.401 9.91906 32.3858C10.0776 32.3698 10.2326 32.3885 10.3841 32.4419C10.5337 32.4955 10.674 32.5835 10.8048 32.7062C10.9356 32.8288 11.0339 32.9643 11.0997 33.1128C11.1647 33.2622 11.197 33.4191 11.1965 33.5833C11.1951 33.7467 11.159 33.912 11.0881 34.0793C11.0173 34.2466 10.91 34.4099 10.7665 34.5692L10.6821 34.6628C10.5386 34.8221 10.3881 34.9448 10.2306 35.031C10.0723 35.118 9.91386 35.1696 9.75532 35.1856C9.59583 35.2008 9.44079 35.1812 9.29019 35.1268C9.13873 35.0733 8.99759 34.9853 8.86679 34.8627C8.73598 34.74 8.63809 34.604 8.57312 34.4546C8.50728 34.3061 8.47552 34.1506 8.47785 33.9881C8.47923 33.8248 8.5158 33.659 8.58754 33.4907C8.65841 33.3235 8.76564 33.1602 8.90921 33.0008ZM9.45794 33.3426L9.37102 33.439C9.27502 33.5456 9.19967 33.6485 9.14498 33.7477C9.08942 33.8479 9.05444 33.9426 9.04003 34.0318C9.02563 34.121 9.03224 34.2042 9.05985 34.2814C9.08661 34.3596 9.13339 34.43 9.2002 34.4926C9.26984 34.5579 9.34351 34.6004 9.42121 34.6201C9.49805 34.6408 9.57943 34.6401 9.66536 34.6179C9.75034 34.5949 9.83943 34.5509 9.93263 34.486C10.024 34.4212 10.1177 34.3355 10.2137 34.229L10.3006 34.1325C10.3958 34.027 10.4716 33.9245 10.5281 33.8252C10.5828 33.726 10.6178 33.6313 10.633 33.5411C10.6483 33.451 10.643 33.3673 10.6172 33.2899C10.5905 33.2118 10.5423 33.14 10.4726 33.0747C10.4058 33.0121 10.3336 32.9709 10.2559 32.9512C10.1772 32.9306 10.0945 32.9318 10.0077 32.955C9.92093 32.9781 9.83184 33.022 9.74045 33.0869C9.64725 33.1518 9.55308 33.237 9.45794 33.3426Z" fill="white"/>
<path d="M5.69817 31.127L7.94772 29.4413L8.31663 29.9534L7.48708 31.9096L8.94095 30.8201L9.31099 31.3338L7.06144 33.0195L6.6914 32.5058L7.51981 30.5481L6.06595 31.6375L5.69817 31.127Z" fill="white"/>
</svg>
