<svg width="64" height="53" viewBox="0 0 64 53" fill="none" xmlns="http://www.w3.org/2000/svg" xmlns:xlink="http://www.w3.org/1999/xlink">
<rect width="52" height="52" transform="translate(6 0.5)"/>
<rect x="6" y="0.5" width="52" height="52" rx="26" fill="white"/>
<path d="M17.6641 37.1667C17.6641 38.4553 18.7087 39.5 19.9974 39.5H23.6638V25.5H19.9974C18.7087 25.5 17.6641 26.5447 17.6641 27.8333V37.1667Z" fill="#08E36D"/>
<path d="M25.6638 39.5H38.3306V15.806C38.3159 14.5299 37.2769 13.5 35.9974 13.5H27.9974C26.7087 13.5 25.6641 14.5447 25.6641 15.8333L25.6638 39.5Z" fill="#08E36D"/>
<path d="M40.3306 20.1667V39.5H43.9974C45.2861 39.5 46.3307 38.4553 46.3307 37.1667V22.5C46.3307 21.2113 45.2861 20.1667 43.9974 20.1667H40.3306Z" fill="#08E36D"/>
</svg>
